<?xml version="1.0" encoding="UTF-8" standalone="no"?>
<!DOCTYPE svg PUBLIC "-//W3C//DTD SVG 1.1//EN" "http://www.w3.org/Graphics/SVG/1.1/DTD/svg11.dtd">
<svg width="100%" height="100%" viewBox="0 0 300 100" version="1.1" xmlns="http://www.w3.org/2000/svg" xmlns:xlink="http://www.w3.org/1999/xlink" xml:space="preserve" xmlns:serif="http://www.serif.com/" style="fill-rule:evenodd;clip-rule:evenodd;stroke-linejoin:round;stroke-miterlimit:2;">
    <g transform="matrix(0.1144,0,0,0.1144,7,27.7492)">
        <g>
            <path d="M1415.61,81.329C1357.35,141.357 1334.75,162.544 1328.74,162.544C1319.21,162.544 1318.86,160.425 1326.27,142.77C1344.28,100.397 1379.59,3.645 1377.12,3.645C1375.35,3.645 1345.34,14.945 1310.38,28.716C1267.3,45.665 1245.06,56.258 1242.59,60.849C1240.47,64.733 1232.7,84.154 1225.28,103.928C1217.87,123.349 1199.51,171.371 1184.67,210.213C1169.85,249.055 1151.48,296.725 1144.07,316.145C1136.65,335.566 1127.47,359.931 1123.23,370.171L1115.82,388.532L1174.43,387.826L1233.05,386.767L1284.61,252.586L1307.91,251.527C1320.62,250.821 1331.21,251.88 1331.21,253.292C1331.57,254.705 1338.98,285.425 1348.16,321.442L1364.76,386.767L1404.31,387.826L1443.5,388.886L1453.04,363.462L1462.92,338.038L1446.33,269.182L1430.09,200.679L1457.27,171.725C1472.11,156.188 1514.12,112.403 1550.14,74.973C1586.16,37.544 1616.17,5.411 1616.53,3.645C1617.23,1.527 1593.57,0.114 1556.14,0.114L1494.35,0.114L1415.61,81.329ZM817.444,26.597L761.299,48.843L726.695,141.357L627.119,142.064L527.895,143.123L481.285,264.945C455.508,331.682 434.322,387.12 434.322,387.473C434.322,388.179 501.412,388.532 583.686,388.532L732.698,388.532L804.732,200.326C844.28,97.219 877.472,10.355 878.178,7.883C880.65,1.88 879.944,1.88 817.444,26.597ZM694.209,225.044C693.15,228.575 685.381,248.702 676.907,270.242L661.37,309.083L612.641,310.143C567.444,310.849 564.266,310.496 566.737,304.846C568.15,301.315 575.565,281.894 583.333,261.414C591.102,241.287 598.164,223.278 598.87,221.866C599.929,220.1 622.175,219.041 648.305,219.041C692.09,219.041 695.975,219.394 694.209,225.044ZM1156.43,26.951L1100.28,48.843L1082.27,95.1L1064.62,141.357L866.879,141.357L821.681,258.589C796.963,323.208 775.777,378.999 774.718,382.53C772.599,388.179 780.72,388.532 921.963,387.826L1071.33,386.767L1105.23,298.49C1189.62,79.21 1215.39,11.061 1214.34,8.236C1213.63,6.47 1187.5,14.945 1156.43,26.951ZM1024.01,246.23C1018.72,261.414 1010.95,281.541 1007.06,291.428L1000,309.083L951.977,310.143C925.494,310.496 903.955,310.143 903.955,309.436C903.955,306.965 935.381,226.103 937.853,222.219C938.912,220.453 960.805,219.041 986.935,219.041L1034.25,219.041L1024.01,246.23ZM1974.22,26.244L1919.85,47.784L1874.65,166.075C1849.58,231.047 1820.27,306.965 1809.67,334.507C1799.08,362.049 1790.25,385.355 1790.25,386.414C1790.25,387.473 1855.93,388.532 1936.09,388.532L2081.57,388.532L2101.7,336.273C2157.13,192.558 2170.9,156.541 2173.02,149.126L2175.49,141.357L2081.92,141.357C2030.37,141.357 1987.99,139.945 1987.99,138.532C1987.99,135.708 2014.12,65.792 2030.01,25.538C2034.25,15.298 2037.43,6.117 2037.43,5.411C2037.43,1.527 2026.13,5.411 1974.22,26.244ZM2032.49,251.527C2026.13,269.535 2018.01,290.369 2015.18,297.431L2009.53,310.849L1964.69,310.849C1923.73,310.849 1920.2,310.496 1922.67,304.493C1924.08,301.315 1930.79,284.013 1937.5,266.71C1944.21,249.055 1951.27,231.4 1953.04,226.809C1955.86,219.394 1957.63,219.041 2000.35,219.041L2044.49,219.041L2032.49,251.527ZM89.336,147.36C88.277,150.891 82.627,165.722 76.624,180.199C70.975,194.677 59.675,225.044 51.201,247.29C42.726,269.535 27.895,309.083 18.008,334.86C8.121,360.99 0,383.589 0,385.355C0,387.12 77.331,388.532 193.503,388.532L387.359,388.532L431.497,272.713C455.862,209.154 477.048,153.716 478.46,149.126L480.579,141.357L286.017,141.357C104.167,141.357 91.455,141.71 89.336,147.36ZM233.051,165.722C233.051,175.962 232.345,176.315 214.689,177.374L195.975,178.434L194.915,198.561L193.856,219.041L155.367,219.041L155.367,300.256L194.209,300.256L194.209,342.629L233.051,342.629L233.051,370.877L128.884,370.877C71.681,370.877 24.718,369.818 24.718,368.052C24.718,365.227 64.972,259.648 102.754,163.25C105.579,155.482 106.638,155.482 169.492,155.482L233.051,155.482L233.051,165.722ZM271.893,180.199L271.893,222.572L314.266,222.572L314.266,300.256L271.893,300.256L271.893,342.629L236.582,342.629L236.582,180.199L271.893,180.199Z" style="fill-rule:nonzero;"/>
            <path d="M112.994,169.606C109.816,175.609 110.876,178.434 120.41,187.261C126.766,192.911 131.003,198.914 129.59,200.326C128.178,201.386 125,199.62 122.175,196.089C119.703,192.558 115.819,190.792 113.701,192.205C107.345,196.089 108.757,200.679 117.938,206.682C124.294,210.919 128.531,211.273 135.593,208.801C147.952,203.857 147.246,193.264 133.828,183.73C128.178,179.493 123.941,174.903 125,173.843C126.059,173.137 129.59,174.196 132.415,176.668C140.184,183.377 147.952,175.962 141.243,167.84C134.887,160.072 117.585,161.131 112.994,169.606ZM151.836,185.496L151.836,208.448L164.195,208.448C170.904,208.448 176.554,206.682 176.554,204.917C176.554,202.798 173.376,201.386 169.492,201.386C163.136,201.386 162.429,198.914 162.429,181.965C162.429,167.134 161.37,162.544 157.133,162.544C152.895,162.544 151.836,167.487 151.836,185.496ZM1647.25,141.71L1545.55,181.965L1507.41,280.835C1486.58,335.213 1469.28,381.823 1468.93,383.942C1468.93,387.473 1483.4,388.532 1529.31,388.532L1589.69,388.532L1633.12,358.518C1657.13,341.922 1677.61,328.504 1678.67,328.504C1679.73,328.504 1676.2,339.097 1671.26,352.162C1655.72,392.77 1651.48,388.886 1709.04,387.826L1759.18,386.767L1766.24,369.112C1775.78,345.1 1830.51,202.798 1843.57,168.547L1853.46,141.357L1750.35,141.357L1647.25,141.71ZM1718.22,230.34C1715.75,236.696 1707.63,257.53 1700.57,276.244L1687.15,310.849L1643.36,310.849C1619.35,310.849 1599.58,309.79 1599.58,308.024C1599.58,306.612 1606.99,286.131 1616.17,262.12L1633.12,219.041L1722.81,219.041L1718.22,230.34ZM2246.12,160.778C2219.99,171.371 2197.39,181.258 2195.97,182.671C2194.21,184.436 2176.2,229.281 2155.37,282.6C2134.89,335.919 2117.23,381.823 2116.17,383.942C2114.76,387.473 2128.18,388.532 2176.2,388.532L2238.35,388.532L2281.78,358.518C2305.79,341.922 2325.57,329.564 2326.27,331.329C2326.62,332.742 2323.09,344.041 2318.15,356.753C2313.21,369.112 2309.32,381.47 2309.32,383.942C2309.32,387.473 2320.27,388.532 2358.4,388.532L2407.13,388.532L2426.91,338.038C2463.98,243.758 2500,148.066 2500,144.535C2500,142.77 2457.98,141.357 2396.89,141.71L2293.43,142.064L2246.12,160.778ZM2369.35,220.806C2369.35,221.866 2361.93,242.699 2353.11,266.71L2336.51,310.849L2245.76,310.849L2253.18,292.134C2257.41,282.247 2265.54,261.414 2271.19,246.23L2281.78,219.041L2325.57,219.041C2349.58,219.041 2369.35,219.747 2369.35,220.806Z" style="fill-rule:nonzero;"/>
        </g>
    </g>
</svg>
