<?xml version="1.0" encoding="UTF-8" standalone="no"?>
<!DOCTYPE svg PUBLIC "-//W3C//DTD SVG 1.1//EN" "http://www.w3.org/Graphics/SVG/1.1/DTD/svg11.dtd">
<svg width="100%" height="100%" viewBox="0 0 300 100" version="1.1" xmlns="http://www.w3.org/2000/svg" xmlns:xlink="http://www.w3.org/1999/xlink" xml:space="preserve" xmlns:serif="http://www.serif.com/" style="fill-rule:evenodd;clip-rule:evenodd;stroke-linejoin:round;stroke-miterlimit:2;">
    <g transform="matrix(0.113373,0,0,0.113373,8.28394,39.8499)">
        <path d="M1.603,177.409L55.473,177.409L55.473,111.037L168.67,111.037L168.67,177.409L222.029,177.409L222.029,2.159L168.67,2.159L168.67,64.781L55.473,64.781L55.473,2.159L1.603,2.159L1.603,177.409ZM241.065,177.409L301.47,177.409L317.268,146.382L426.089,146.382L442.454,177.409L502.291,177.409L405.972,2.159L336.304,2.159L241.065,177.409ZM371.138,42.96L405.972,108.252L336.816,108.252L371.138,42.96ZM521.328,177.409L696.009,177.409L696.009,132.233L575.198,132.233L575.198,2.159L521.328,2.159L521.328,177.409ZM718.285,177.409L893.023,177.409L893.023,132.233L772.212,132.233L772.212,2.159L718.285,2.159L718.285,177.409ZM918.594,177.409L972.465,177.409L972.465,2.159L918.594,2.159L918.594,177.409ZM1011.56,177.409L1182.49,177.409C1212.95,177.409 1235.79,169.226 1235.79,130.585C1235.79,104.502 1227.1,91.943 1203.69,88.704L1203.69,88.136C1218.35,83.761 1229.26,77.794 1229.26,47.904C1229.26,13.581 1208.57,2.159 1166.13,2.159L1011.56,2.159L1011.56,177.409ZM1064.98,107.741L1161.3,107.741C1172.72,107.741 1180.9,110.469 1180.9,122.402C1180.9,132.233 1172.72,134.96 1161.3,134.96L1064.98,134.96L1064.98,107.741ZM1064.98,44.04L1160.22,44.04C1169.99,44.04 1176.01,47.847 1176.01,58.189C1176.01,68.02 1170.05,71.259 1160.22,71.259L1064.98,71.259L1064.98,44.04ZM1268.47,114.844C1268.47,158.372 1290.8,179.057 1340.3,179.057L1417.01,179.057C1466.56,179.057 1488.84,158.372 1488.84,114.844L1488.84,2.159L1434.97,2.159L1434.97,103.365C1434.97,125.698 1427.35,134.392 1405.08,134.392L1351.77,134.392C1330.01,134.392 1321.83,125.698 1321.83,103.365L1321.83,2.159L1268.53,2.159L1268.53,114.844L1268.47,114.844ZM1578.68,45.688L1662.5,45.688C1679.37,45.688 1687.5,48.415 1687.5,64.213L1687.5,69.668C1687.5,82.17 1682.04,88.193 1667.38,88.193L1578.68,88.193L1578.68,45.688ZM1524.75,177.409L1578.68,177.409L1578.68,131.664L1663.01,131.664C1679.88,131.664 1685.34,137.631 1685.34,156.156L1685.34,177.409L1738.64,177.409L1738.64,147.462C1738.64,118.651 1725.63,111.548 1709.77,108.821L1709.77,108.309C1734.32,102.343 1739.72,88.704 1739.72,65.349L1739.72,53.87C1739.72,22.844 1728.3,2.159 1686.93,2.159L1524.75,2.159L1524.75,177.409ZM1763.13,45.688L1838.26,45.688L1838.26,177.409L1892.13,177.409L1892.13,45.688L1967.76,45.688L1967.76,2.159L1763.13,2.159L1763.13,45.688ZM1987.37,115.924C1987.37,167.067 2016.18,179 2064.08,179L2150.63,179C2199.04,179 2227.34,167.067 2227.34,115.924L2227.34,63.644C2227.34,12.502 2199.04,0 2150.63,0L2064.08,0C2016.18,0 1987.37,12.502 1987.37,63.644L1987.37,115.924ZM2042.32,80.01C2042.32,58.246 2047.77,45.176 2076.07,45.176L2138.69,45.176C2166.99,45.176 2172.45,58.189 2172.45,80.01L2172.45,99.047C2172.45,124.618 2166.99,134.449 2141.93,134.449L2072.83,134.449C2047.83,134.449 2042.37,124.675 2042.37,99.047L2042.37,80.01L2042.32,80.01ZM2260.01,177.409L2313.89,177.409L2313.89,50.063L2314.4,50.063L2415.09,177.409L2498.4,177.409L2498.4,2.159L2444.47,2.159L2444.47,129.505L2443.9,129.505L2343.26,2.159L2260.01,2.159L2260.01,177.409Z" style="fill:rgb(207,64,55);fill-rule:nonzero;"/>
    </g>
</svg>
