<?xml version="1.0" encoding="UTF-8" standalone="no"?>
<!DOCTYPE svg PUBLIC "-//W3C//DTD SVG 1.1//EN" "http://www.w3.org/Graphics/SVG/1.1/DTD/svg11.dtd">
<svg width="100%" height="100%" viewBox="0 0 300 100" version="1.1" xmlns="http://www.w3.org/2000/svg" xmlns:xlink="http://www.w3.org/1999/xlink" xml:space="preserve" xmlns:serif="http://www.serif.com/" style="fill-rule:evenodd;clip-rule:evenodd;stroke-linejoin:round;stroke-miterlimit:2;">
    <g transform="matrix(0.125563,0,0,0.125563,-7.05735,-106.953)">
        <path d="M610.993,893.876C642.846,893.876 668.825,920.425 668.825,952.966C668.825,985.508 642.846,1012.06 610.993,1012.06C579.139,1012.06 553.16,985.521 553.16,952.966C553.16,920.425 579.139,893.876 610.993,893.876Z" style="fill:rgb(204,34,41);"/>
        <path d="M206.933,1157.9L206.933,1272.88L208.593,1274.55L210.266,1276.23L216.932,1279.55L220.266,1279.55L220.266,1287.88L123.628,1287.88L123.628,1279.55L126.961,1277.88L131.967,1277.88L135.301,1274.55L136.961,1272.88L136.961,1269.55L138.621,1266.21L138.621,1001.28L136.961,997.946L136.961,994.612L135.301,992.939L133.627,991.279L130.294,989.606L126.961,989.606L123.628,987.946L123.628,979.619L220.266,979.619L220.266,987.946L216.932,989.606L213.599,989.606L208.593,992.939L206.933,994.612L206.933,1099.59L383.555,1099.59L383.555,997.946L381.895,994.612L380.222,992.939L380.222,991.279L376.888,989.606L373.555,989.606L370.222,987.946L370.222,979.619L465.2,979.619L465.2,987.946L461.866,987.946L458.533,989.606L456.873,991.279L455.2,992.939L453.54,994.612L451.88,997.946L451.88,1271.22L453.54,1272.88L456.873,1276.23L458.533,1277.88L461.866,1279.55L465.2,1279.55L465.2,1287.88L370.222,1287.88L370.222,1279.55L373.555,1279.55L380.222,1276.23L381.895,1272.88L383.555,1271.22L383.555,1157.9L206.933,1157.9ZM640.162,1262.88L640.162,1269.55L641.822,1272.88L643.495,1274.55L645.155,1276.23L646.828,1277.88L650.161,1279.55L655.168,1279.55L655.168,1287.88L565.183,1287.88L565.183,1279.55L568.517,1279.55L575.183,1276.23L578.516,1272.88L578.516,1271.22L580.189,1262.88L580.189,1059.6L578.516,1056.27L578.516,1049.6L575.196,1046.28L571.837,1046.28L565.17,1042.96L565.17,1034.62L655.155,1034.62L655.155,1042.96L650.148,1044.62L646.815,1046.28L645.142,1046.28L643.482,1047.94L641.809,1049.6L640.149,1052.94L640.149,1262.88L640.162,1262.88ZM753.453,1287.87L753.453,1279.53L756.786,1277.87L761.779,1277.87L766.785,1272.87L766.785,1266.2L768.446,1262.87L768.446,1004.61L766.785,1001.28L766.785,994.612L763.452,991.279L760.119,989.606L756.786,989.606L753.453,987.946L753.453,979.619L870.09,979.619L870.09,987.946L865.096,989.606L860.103,991.279L858.43,994.612L858.43,1002.94L860.103,1006.27L861.763,1009.61L945.081,1172.89L1031.73,1009.61L1033.39,1006.27L1035.05,1004.6L1036.72,999.606L1035.05,994.612L1033.39,992.939L1030.06,989.606L1025.07,987.946L1025.07,979.619L1138.36,979.619L1138.36,987.946L1133.36,989.606L1130.03,989.606L1126.7,991.279L1126.7,992.939L1125.02,994.612L1123.35,997.946L1123.35,1269.55L1125.02,1272.88L1126.7,1274.55L1126.7,1276.23L1133.36,1279.55L1138.36,1279.55L1138.36,1287.88L1045.05,1287.88L1045.05,1279.55L1048.38,1279.55L1051.73,1277.88L1055.06,1276.23L1056.72,1274.55L1058.4,1272.88L1058.4,1269.55L1060.06,1266.21L1060.06,1066.26L940.087,1286.2L826.797,1066.26L826.797,1267.87L828.457,1271.21L828.457,1272.87L831.79,1276.21L833.463,1277.87L836.796,1279.53L841.803,1279.53L841.803,1287.87L753.453,1287.87ZM1191.67,1287.9L1191.67,1279.53L1195.01,1277.87L1203.35,1274.54L1206.68,1271.21L1208.35,1267.87L1211.69,1262.87L1215.02,1259.53L1216.68,1252.87L1220.03,1249.53L1333.32,1011.25L1336.66,1006.26L1336.66,1002.95L1334.99,997.959L1331.67,992.952L1326.65,991.292L1319.99,987.959L1319.99,979.632L1423.29,979.632L1423.29,987.959L1416.62,991.292L1414.95,992.952L1413.3,992.952L1409.96,996.285L1409.96,1004.61L1411.63,1011.28L1529.93,1249.56L1534.92,1257.89L1541.61,1267.9L1544.93,1271.23L1548.28,1274.57L1551.6,1276.24L1559.94,1279.56L1559.94,1287.9L1448.31,1287.9L1448.31,1279.56L1451.65,1277.9L1454.97,1277.9L1458.32,1276.24L1459.97,1274.57L1461.64,1271.23L1463.31,1266.23L1461.64,1261.23L1461.64,1259.56L1459.97,1256.23L1438.31,1207.9L1296.68,1207.9L1275.02,1256.23L1273.35,1259.56L1273.35,1271.23L1275.02,1274.57L1276.69,1276.24L1280.04,1277.9L1283.36,1277.9L1286.7,1279.56L1286.7,1287.9L1191.67,1287.9ZM1368.31,1057.93L1316.66,1166.24L1419.97,1166.24L1368.31,1057.93ZM1616.59,1287.87L1616.59,1279.53L1619.91,1279.53L1623.26,1277.87L1624.9,1276.21L1628.25,1272.87L1629.92,1269.53L1629.92,997.946L1628.25,994.612L1628.25,992.939L1623.26,989.606L1619.91,989.606L1616.59,987.946L1616.59,979.619L1823.2,979.619L1849.84,982.94L1861.51,986.273L1873.16,989.606L1884.83,992.939L1893.17,997.946L1901.48,1004.61L1909.82,1009.62L1916.49,1016.28L1923.17,1024.61L1928.16,1031.28L1931.48,1039.6L1936.5,1069.6L1934.83,1077.93L1934.83,1086.26L1933.16,1092.92L1929.84,1101.25L1928.16,1107.92L1924.82,1114.58L1919.82,1121.25L1914.83,1126.24L1909.81,1131.24L1903.14,1137.9L1896.48,1141.24L1888.14,1146.23L1881.47,1149.56L1871.47,1152.89L1861.49,1157.89L1851.49,1159.56L1916.46,1251.19L1923.16,1259.53L1929.82,1264.53L1934.82,1267.87L1939.81,1272.87L1946.48,1276.21L1953.17,1279.53L1953.17,1287.87L1839.87,1287.87L1839.87,1279.53L1846.53,1277.87L1849.85,1276.21L1851.53,1272.87L1853.2,1269.53L1851.53,1267.87L1849.85,1264.53L1848.2,1259.53L1846.53,1256.2L1781.55,1162.89L1698.24,1162.89L1698.24,1271.21L1699.88,1272.87L1701.56,1274.54L1701.56,1276.21L1704.9,1277.87L1708.22,1279.53L1713.24,1279.53L1713.24,1287.87L1616.59,1287.87ZM1789.85,1032.94L1698.24,1032.94L1698.24,1117.92L1793.2,1117.92L1803.2,1116.24L1821.51,1116.24L1828.18,1114.58L1834.85,1112.91L1841.51,1111.25L1848.2,1109.59L1853.2,1107.93L1856.52,1104.6L1861.54,1101.26L1866.53,1094.6L1868.2,1089.6L1869.88,1079.6L1871.52,1072.94L1869.88,1067.93L1868.2,1059.6L1866.53,1054.61L1863.21,1051.28L1861.54,1047.94L1853.2,1042.95L1848.2,1039.62L1843.18,1037.94L1836.52,1036.28L1828.18,1034.61L1819.84,1034.61L1811.5,1032.95L1789.85,1032.95L1789.85,1032.94ZM2109.79,1179.56L2109.79,1271.22L2111.44,1272.88L2114.78,1276.23L2116.46,1277.88L2119.78,1279.55L2124.8,1279.55L2124.8,1287.88L2028.13,1287.88L2028.13,1279.55L2031.48,1277.88L2034.83,1277.88L2039.82,1274.55L2039.82,1272.88L2041.49,1269.55L2041.49,997.946L2039.82,994.612L2038.15,992.939L2036.47,991.279L2034.83,989.606L2031.48,989.606L2028.13,987.946L2028.13,979.619L2124.8,979.619L2124.8,987.946L2119.78,989.606L2116.46,989.606L2113.11,992.939L2111.44,994.612L2109.79,997.946L2109.79,1109.59L2233.08,1011.28L2233.08,1009.62L2238.08,1006.28L2239.75,1004.61L2243.1,997.946L2239.75,991.279L2234.76,989.606L2229.76,987.946L2229.76,979.619L2359.72,979.619L2359.72,987.946L2344.73,996.285L2333.08,1004.61L2319.73,1012.95L2309.75,1021.29L2308.07,1022.95L2206.44,1104.6L2328.06,1249.56L2344.73,1264.54L2354.73,1272.88L2366.37,1279.55L2366.37,1287.88L2244.73,1287.88L2244.73,1279.55L2249.75,1276.23L2253.07,1272.88L2256.41,1269.55L2256.41,1264.54L2254.74,1261.22L2253.07,1259.55L2249.75,1254.54L2248.08,1252.88L2156.43,1144.57L2109.79,1179.56Z"/>
        <rect x="111.955" y="1367.86" width="2277.75" height="238.268" style="fill:rgb(118,89,122);"/>
        <path d="M506.858,1464.49L510.192,1447.84L510.192,1446.17C508.532,1446.17 508.532,1446.17 506.858,1447.84L501.865,1452.83C496.872,1459.5 488.532,1464.49 481.866,1467.83L480.206,1469.5L491.865,1469.5L478.532,1524.48C478.532,1526.14 476.872,1527.81 476.872,1529.49C476.872,1532.82 480.206,1534.48 485.199,1534.48C491.865,1534.48 498.532,1529.49 506.858,1517.83L508.532,1516.15L505.198,1514.49L505.198,1516.15L500.192,1522.83C496.859,1524.49 495.199,1527.83 493.525,1527.83C491.852,1527.83 490.192,1526.15 490.192,1524.49C490.192,1524.49 491.852,1522.83 491.852,1521.16L505.185,1469.51L518.505,1469.51L518.505,1464.51L506.858,1464.51L506.858,1464.49ZM560.177,1424.51L556.857,1424.51C546.857,1426.18 541.864,1427.84 535.197,1427.84L533.524,1427.84L533.524,1431.17L536.857,1431.17C541.864,1431.17 545.197,1432.85 545.197,1434.51C543.537,1437.84 543.537,1439.51 543.537,1442.85L518.544,1532.83L531.877,1532.83L536.87,1514.51C538.544,1504.51 543.537,1497.84 550.203,1487.84C558.53,1476.18 566.857,1471.17 571.863,1471.17C573.523,1471.17 575.196,1472.85 575.196,1476.18L575.196,1477.85L563.536,1519.5C561.876,1522.85 561.876,1526.16 561.876,1527.84C561.876,1532.85 565.209,1534.51 570.216,1534.51C576.882,1534.51 583.549,1529.51 591.875,1516.18L590.215,1514.52L590.215,1516.18L585.222,1521.18C581.889,1526.18 578.555,1527.85 576.882,1527.85C575.209,1527.85 575.222,1526.18 575.222,1524.52L575.222,1519.51L583.562,1491.19C586.895,1479.53 588.555,1476.19 588.555,1472.86C588.555,1467.85 583.562,1462.86 576.895,1462.86C573.562,1462.86 571.902,1462.86 568.569,1464.52C561.655,1469.77 555.489,1475.93 550.242,1482.85L541.903,1492.85L541.903,1494.51L560.177,1424.51ZM616.829,1502.82L618.489,1502.82C635.155,1501.15 641.809,1499.49 650.148,1492.82C656.815,1487.81 661.808,1479.49 661.808,1472.82C661.808,1467.81 656.802,1462.82 648.475,1462.82C636.815,1462.82 623.483,1469.49 613.483,1482.81C605.143,1491.15 601.823,1502.81 601.823,1514.47C601.823,1526.11 610.163,1534.45 621.822,1534.45C633.482,1534.45 646.815,1527.79 655.155,1517.8L653.482,1516.13C643.482,1524.47 636.815,1527.79 630.149,1527.79C620.149,1527.79 615.156,1522.79 615.156,1512.79C615.156,1509.49 615.156,1507.83 616.829,1502.82ZM618.502,1499.49C620.162,1491.15 621.835,1487.83 625.169,1482.82C631.835,1472.82 640.162,1466.15 645.155,1466.15C648.488,1466.15 651.821,1469.5 651.821,1472.83C651.821,1477.84 646.828,1486.15 641.822,1489.49C635.155,1494.49 630.149,1497.81 618.502,1499.49ZM738.46,1512.82C736.799,1504.48 735.126,1487.83 735.126,1477.84C731.793,1466.17 731.793,1462.85 730.133,1462.85L726.8,1462.85C721.806,1464.51 713.467,1466.17 710.134,1466.17L710.134,1469.51L715.127,1469.51C718.46,1469.51 720.12,1469.51 720.12,1472.85C721.793,1476.18 723.453,1487.84 725.127,1499.51C725.127,1509.51 726.787,1521.17 726.787,1529.5C726.787,1534.49 726.787,1536.16 728.447,1536.16C730.107,1536.16 730.107,1536.16 731.78,1534.49L738.447,1522.85L761.779,1481.17L765.112,1522.85C766.785,1531.17 766.785,1534.49 766.785,1536.16L768.446,1536.16C770.119,1536.16 771.779,1534.49 775.112,1529.5L790.105,1511.16C793.438,1506.17 796.772,1501.16 801.765,1494.51C808.431,1484.51 810.092,1477.85 810.092,1471.17C810.092,1466.17 806.758,1462.85 803.425,1462.85C798.419,1462.85 796.759,1464.51 796.759,1467.84C796.759,1469.51 796.759,1471.17 798.419,1472.85L801.752,1476.18C802.698,1477.05 803.29,1478.24 803.412,1479.51C803.412,1481.17 803.412,1482.85 801.752,1484.52C798.419,1492.86 790.092,1504.51 778.432,1519.5L776.759,1521.17L771.766,1462.86L768.433,1464.52L738.46,1512.82ZM848.443,1429.5C843.437,1429.5 840.104,1432.85 840.104,1437.84C840.104,1442.85 843.437,1446.18 848.443,1446.18C851.776,1446.18 856.783,1442.85 856.783,1437.84C856.77,1432.85 851.763,1429.5 848.443,1429.5ZM850.103,1462.83C841.777,1464.49 831.764,1466.15 823.45,1466.15L823.45,1469.5L828.444,1469.5C831.777,1469.5 833.45,1471.16 833.45,1472.83L833.45,1476.17L831.777,1482.83L823.45,1512.82L823.45,1517.83C821.777,1521.16 821.777,1526.15 821.777,1526.15C821.777,1531.16 825.111,1534.49 828.444,1534.49C836.783,1534.49 843.437,1529.5 851.776,1516.17L850.116,1514.51L848.456,1516.17C843.45,1524.51 838.456,1527.83 836.796,1527.83C835.136,1527.83 833.463,1526.15 833.463,1524.49C833.463,1524.49 833.463,1522.83 835.123,1521.16L836.783,1511.16L850.103,1462.83ZM895.095,1462.83L870.103,1467.83L870.103,1469.5L875.109,1469.5C878.442,1469.5 880.102,1471.16 880.102,1474.49C880.102,1474.49 880.102,1481.16 878.442,1487.83L876.769,1492.83L865.109,1532.82L878.442,1532.82L878.442,1531.15C885.109,1511.15 886.782,1504.48 890.102,1497.83C893.422,1491.17 896.768,1484.51 900.102,1481.16C905.108,1474.49 906.768,1472.83 908.441,1472.83C908.441,1472.83 910.101,1472.83 910.101,1474.49L911.762,1476.17C911.762,1477.84 913.422,1479.5 916.768,1479.5C921.761,1479.5 923.434,1476.17 923.434,1471.16C923.434,1466.15 921.761,1462.83 916.768,1462.83C913.435,1462.83 910.101,1464.49 906.768,1466.15C901.775,1471.16 896.768,1477.83 893.448,1482.82L886.782,1494.48L895.108,1464.49L895.108,1462.83L895.095,1462.83ZM935.081,1502.82L936.741,1502.82C953.407,1501.15 960.074,1499.49 968.4,1492.82C975.067,1487.81 980.06,1479.49 980.06,1472.82C980.06,1467.81 975.054,1462.82 966.727,1462.82C955.068,1462.82 941.735,1469.49 931.748,1482.81C923.343,1491.21 918.554,1502.58 918.415,1514.47C918.415,1526.11 926.755,1534.45 940.074,1534.45C951.734,1534.45 965.08,1527.79 973.407,1517.8L971.747,1516.13C961.747,1524.47 955.081,1527.79 948.414,1527.79C938.414,1527.79 933.421,1522.79 933.421,1512.79C933.408,1509.49 933.408,1507.83 935.081,1502.82ZM936.741,1499.49C938.414,1491.15 940.074,1487.83 943.408,1482.82C950.074,1472.82 958.401,1466.15 963.407,1466.15C966.74,1466.15 970.074,1469.5 970.074,1472.83C970.074,1477.84 965.08,1486.15 960.074,1489.49C953.407,1494.49 948.414,1497.81 936.741,1499.49ZM1030.05,1424.51C1025.05,1426.18 1015.05,1427.84 1005.05,1427.84L1005.05,1431.17C1013.39,1431.17 1015.05,1432.85 1015.05,1436.17C1015.05,1436.17 1015.05,1437.84 1013.39,1444.51L991.733,1524.49L991.733,1526.15C991.733,1531.16 995.066,1534.49 1000.06,1534.49C1008.4,1534.49 1015.05,1529.5 1025.07,1514.51L1021.73,1512.83L1021.73,1516.17C1015.05,1524.51 1010.07,1527.83 1006.74,1527.83C1005.07,1527.83 1005.07,1527.83 1005.07,1524.49L1005.07,1521.16L1030.05,1424.51ZM1050.05,1502.82L1053.38,1502.82C1068.37,1501.15 1075.04,1499.49 1085.04,1492.82C1091.7,1487.81 1096.7,1479.49 1096.7,1472.82C1096.7,1467.81 1091.69,1462.82 1083.36,1462.82C1071.7,1462.82 1058.37,1469.49 1048.37,1482.81C1039.97,1491.21 1035.19,1502.58 1035.05,1514.47C1035.05,1526.11 1043.39,1534.45 1056.71,1534.45C1068.37,1534.45 1080.04,1527.79 1090.03,1517.8L1086.7,1516.13C1078.36,1524.47 1071.7,1527.79 1063.37,1527.79C1055.04,1527.79 1050.05,1522.79 1050.05,1512.79L1050.05,1502.82ZM1051.72,1499.49C1055.05,1491.15 1056.71,1487.83 1060.05,1482.82C1066.72,1472.82 1073.38,1466.15 1080.04,1466.15C1083.38,1466.15 1085.05,1469.5 1085.05,1472.83C1085.05,1477.84 1081.72,1486.15 1075.05,1489.49C1070.05,1494.49 1063.38,1497.81 1051.72,1499.49ZM1158.36,1462.83C1156.68,1464.49 1156.68,1466.15 1153.35,1466.15C1153.35,1466.15 1151.69,1466.15 1150.02,1464.49L1141.69,1462.83L1138.36,1462.83C1128.36,1462.83 1120.03,1469.5 1120.03,1479.49C1120.03,1484.49 1121.7,1487.83 1123.36,1492.82L1135.02,1507.81C1136.7,1511.13 1138.36,1516.14 1138.36,1519.46C1138.36,1526.13 1135.02,1531.12 1126.71,1531.12C1120.03,1531.12 1115.05,1526.11 1111.72,1514.47L1110.04,1509.46L1108.37,1509.46L1105.04,1536.13L1108.37,1536.13C1108.37,1532.79 1110.04,1532.79 1111.72,1532.79L1115.05,1532.79L1121.72,1534.45C1123.38,1534.45 1125.05,1536.13 1128.38,1536.13C1141.71,1534.45 1151.71,1526.13 1151.71,1514.47C1151.71,1509.46 1150.04,1504.47 1146.71,1501.13L1135.05,1484.48C1133.39,1481.13 1131.72,1477.81 1131.72,1476.14C1131.72,1469.47 1135.05,1466.14 1140.06,1466.14C1148.39,1466.14 1155.05,1472.82 1155.05,1484.48L1158.38,1484.48L1160.06,1462.82L1158.36,1462.82L1158.36,1462.83ZM1221.67,1462.83C1220.01,1464.49 1218.34,1466.15 1216.67,1466.15C1215.01,1466.15 1213.33,1466.15 1213.33,1464.49L1203.34,1462.83L1201.66,1462.83C1190.02,1462.83 1181.67,1469.5 1181.67,1479.49C1181.67,1484.49 1183.34,1487.83 1186.67,1492.82L1196.67,1507.81C1200,1511.13 1201.66,1516.14 1201.66,1519.46C1201.66,1519.56 1201.66,1519.65 1201.66,1519.75C1201.66,1525.99 1196.53,1531.12 1190.29,1531.12C1190.2,1531.12 1190.11,1531.12 1190.02,1531.12C1181.67,1531.12 1176.68,1526.11 1173.35,1514.47L1173.35,1509.46L1170.02,1509.46L1166.68,1536.13L1170.02,1536.13C1171.68,1532.79 1171.68,1532.79 1173.35,1532.79L1178.36,1532.79L1183.35,1534.45C1186.68,1534.45 1188.36,1536.13 1190.03,1536.13C1203.35,1534.45 1213.35,1526.13 1213.35,1514.47C1213.35,1509.46 1211.69,1504.47 1208.35,1501.13L1196.69,1484.48C1195.02,1481.13 1193.36,1477.81 1193.36,1476.14C1193.36,1469.47 1196.69,1466.14 1203.36,1466.14C1211.7,1466.14 1216.68,1472.82 1216.68,1484.48L1220.03,1484.48L1223.36,1462.82L1221.67,1462.82L1221.67,1462.83ZM1286.67,1429.5L1286.67,1431.17L1289.99,1431.17C1296.65,1432.85 1298.33,1434.51 1298.33,1439.51L1298.33,1444.51L1276.67,1519.49C1274.99,1527.83 1273.32,1529.49 1265.02,1531.15L1265.02,1532.82L1303.32,1532.82L1303.32,1531.15L1301.67,1531.15C1295.01,1529.49 1293.33,1527.81 1293.33,1522.82L1293.33,1519.47L1295.01,1514.48L1314.99,1442.83C1316.66,1434.5 1318.31,1432.84 1326.64,1431.17L1326.64,1429.5L1286.67,1429.5ZM1424.95,1427.84C1424.95,1429.5 1423.28,1431.17 1419.96,1431.17C1418.28,1431.17 1414.94,1429.5 1408.28,1427.84L1394.96,1427.84C1359.98,1427.84 1329.99,1457.83 1329.99,1492.83C1329.99,1519.49 1346.65,1536.15 1371.63,1536.15C1388.3,1536.15 1403.29,1527.81 1414.95,1512.82L1411.63,1509.49C1403.29,1517.83 1401.63,1519.49 1396.64,1522.82C1389.97,1526.14 1383.32,1529.49 1374.98,1529.49C1358.31,1529.49 1348.3,1516.15 1348.3,1496.15C1348.3,1461.17 1369.96,1432.85 1396.64,1432.85C1409.96,1432.85 1418.3,1441.17 1419.97,1459.5L1423.29,1459.5L1429.95,1427.85L1424.95,1427.85L1424.95,1427.84ZM1521.59,1516.14C1513.25,1526.14 1506.59,1529.47 1498.25,1529.47C1489.91,1529.47 1484.93,1522.81 1484.93,1511.13C1484.93,1487.81 1499.93,1466.14 1516.59,1466.14C1519.91,1466.14 1521.59,1467.81 1521.59,1469.49L1521.59,1471.15L1519.91,1474.48L1519.91,1476.15C1519.91,1481.15 1521.59,1482.82 1526.61,1482.82C1529.93,1482.82 1533.27,1479.49 1533.27,1476.15C1533.27,1467.81 1526.61,1462.83 1516.61,1462.83C1493.27,1462.83 1469.94,1486.15 1469.94,1511.15C1469.94,1526.14 1478.28,1534.48 1494.95,1534.48C1504.93,1534.48 1514.93,1529.49 1524.93,1517.83L1521.59,1516.14ZM1586.59,1462.83C1579.9,1462.83 1571.6,1466.15 1564.91,1471.16C1549.91,1481.16 1541.6,1497.83 1541.6,1512.82C1541.6,1526.14 1551.59,1534.48 1564.91,1534.48C1579.9,1534.48 1594.89,1524.48 1604.9,1507.83C1609.9,1499.49 1611.57,1492.83 1611.57,1486.15C1611.57,1471.16 1603.23,1462.83 1588.24,1462.83L1586.59,1462.83ZM1568.25,1531.15C1561.59,1531.15 1554.93,1524.48 1554.93,1516.15C1554.93,1506.15 1558.25,1494.49 1564.92,1484.51C1571.61,1472.85 1579.91,1466.17 1586.6,1466.17C1593.27,1466.17 1598.25,1472.85 1598.25,1481.16C1598.25,1491.16 1594.9,1504.49 1588.25,1514.49C1583.25,1524.48 1574.92,1531.15 1568.25,1531.15ZM1649.9,1462.83L1623.24,1467.83L1623.24,1471.16L1628.24,1471.16C1633.23,1471.16 1634.9,1471.16 1634.9,1474.49C1634.9,1474.49 1633.23,1479.5 1633.23,1482.83L1618.24,1532.82L1631.58,1532.82L1631.58,1531.15L1636.58,1514.49C1638.25,1511.15 1639.9,1507.83 1641.57,1502.83C1644.92,1496.15 1648.24,1491.17 1654.89,1482.83C1661.58,1474.49 1666.56,1471.17 1669.88,1471.17C1671.56,1471.17 1673.23,1472.85 1673.23,1474.51C1673.23,1476.18 1673.23,1481.17 1671.56,1486.17L1658.24,1532.83L1669.88,1532.83L1671.56,1531.16C1673.23,1519.5 1674.9,1514.51 1676.58,1512.83C1678.22,1504.49 1683.24,1494.51 1688.22,1487.84C1696.56,1477.84 1704.89,1471.17 1708.21,1471.17C1709.88,1471.17 1711.56,1472.85 1711.56,1474.51C1711.56,1476.18 1709.88,1479.51 1709.88,1484.51L1701.54,1517.83C1699.87,1522.83 1698.22,1526.15 1698.22,1527.83C1698.22,1532.83 1701.54,1534.49 1706.56,1534.49C1713.23,1534.49 1719.88,1529.5 1729.87,1516.17L1726.55,1514.51L1726.55,1516.17C1719.88,1522.85 1716.55,1527.83 1713.23,1527.83C1711.56,1527.83 1711.56,1526.15 1711.56,1524.49C1711.56,1524.49 1711.56,1519.49 1713.23,1514.49L1721.57,1484.51C1723.22,1479.5 1724.89,1476.17 1724.89,1472.85C1724.89,1467.84 1719.89,1462.85 1714.89,1462.85C1706.58,1462.85 1696.58,1471.17 1686.56,1484.51L1681.57,1492.85L1679.9,1494.51C1679.9,1494.51 1679.9,1492.85 1681.57,1492.85C1684.89,1477.85 1684.89,1476.18 1684.89,1471.17C1684.89,1466.17 1681.57,1462.85 1676.58,1462.85C1673.23,1462.85 1671.56,1462.85 1669.88,1464.51C1663.22,1467.84 1654.89,1476.17 1651.57,1481.16L1643.23,1494.49L1641.56,1494.49L1649.9,1462.83Z" style="fill:white;"/>
        <path d="M1764.87,1462.83L1739.87,1466.15L1741.54,1469.5L1743.21,1469.5C1748.21,1469.5 1751.55,1471.16 1751.55,1472.83C1751.55,1474.49 1751.55,1477.84 1749.88,1481.16L1729.87,1554.48C1728.22,1561.14 1726.55,1562.82 1719.88,1562.82L1719.88,1566.15L1753.19,1566.15L1753.19,1562.82C1744.85,1562.82 1743.2,1562.82 1743.2,1557.81L1743.2,1551.14L1748.19,1532.82C1753.19,1534.48 1754.86,1534.48 1758.19,1534.48C1773.19,1534.48 1789.83,1524.48 1799.84,1507.83C1804.83,1499.49 1806.51,1491.16 1806.51,1482.82C1806.51,1471.16 1799.84,1462.83 1788.19,1462.83C1778.19,1462.83 1773.2,1466.15 1763.19,1477.83L1761.52,1479.49L1763.19,1477.83L1764.86,1467.83L1766.53,1462.83L1764.87,1462.83ZM1783.19,1469.5C1789.85,1469.5 1793.19,1474.49 1793.19,1482.82C1793.19,1492.82 1789.84,1502.82 1783.19,1512.81C1776.52,1526.13 1768.19,1531.13 1758.21,1531.13C1753.19,1531.13 1751.54,1529.47 1751.54,1526.13L1751.54,1522.81C1753.19,1511.13 1758.21,1492.82 1761.53,1486.14C1766.55,1476.15 1774.86,1469.5 1783.19,1469.5ZM1873.17,1471.16C1871.5,1466.15 1866.51,1462.83 1859.85,1462.83C1848.2,1462.83 1831.53,1474.48 1821.53,1491.16C1816.53,1499.5 1814.86,1507.83 1814.86,1516.15C1814.86,1527.81 1821.53,1536.15 1829.85,1536.15C1836.52,1534.48 1841.5,1532.82 1846.52,1529.49C1851.51,1526.14 1853.18,1524.48 1861.51,1512.82L1863.18,1511.15L1863.18,1512.82C1861.51,1519.49 1859.84,1522.82 1859.84,1522.82L1859.84,1527.81C1859.84,1532.82 1861.51,1534.48 1866.51,1534.48C1871.5,1534.48 1876.5,1531.15 1886.49,1519.49L1888.16,1517.83L1886.49,1516.15C1883.17,1519.49 1879.83,1521.16 1878.18,1524.49C1876.5,1526.15 1874.83,1526.15 1873.16,1526.15C1871.49,1526.15 1871.49,1526.15 1871.49,1524.49L1871.49,1521.16L1876.5,1504.49L1886.49,1462.85L1879.83,1462.85L1876.5,1464.51L1874.83,1464.51L1873.17,1471.16ZM1859.84,1466.15L1861.51,1466.15C1866.51,1466.15 1869.85,1469.5 1869.85,1476.15C1869.85,1486.15 1866.51,1497.81 1859.85,1509.47C1853.2,1521.13 1844.86,1527.8 1838.19,1527.8C1833.2,1527.8 1828.19,1522.81 1828.19,1516.14C1828.19,1506.14 1834.86,1489.47 1843.18,1477.83C1848.19,1471.16 1854.86,1466.15 1859.84,1466.15ZM1926.49,1462.83L1899.84,1467.83L1899.84,1471.16C1906.5,1471.16 1909.82,1471.16 1909.82,1474.49L1909.82,1479.5L1906.5,1486.17L1894.83,1532.83L1906.5,1532.83L1906.5,1531.16C1911.5,1519.5 1913.17,1512.83 1914.84,1509.5C1914.84,1506.17 1918.16,1502.83 1919.84,1497.84C1928.18,1481.17 1939.82,1471.17 1946.49,1471.17C1948.16,1471.17 1949.84,1472.85 1949.84,1476.18C1949.84,1476.18 1948.16,1481.17 1948.16,1486.18L1946.49,1491.19L1939.82,1514.52L1938.18,1521.18L1938.18,1527.85C1938.18,1531.18 1939.82,1534.52 1944.84,1534.52C1953.18,1534.52 1956.49,1531.18 1966.5,1517.87L1968.17,1516.19L1964.83,1514.53C1958.16,1524.53 1954.83,1527.85 1953.18,1527.85C1951.51,1527.85 1949.84,1526.18 1949.84,1524.52L1949.84,1522.86C1951.51,1521.18 1951.51,1519.51 1951.51,1519.51L1959.85,1484.53C1961.5,1481.19 1963.17,1474.53 1963.17,1472.87C1963.17,1466.19 1958.17,1462.87 1951.52,1462.87C1949.85,1462.87 1946.5,1462.87 1943.18,1464.53C1938.19,1467.87 1929.86,1476.19 1924.84,1484.53L1918.18,1494.53L1916.5,1496.19L1926.49,1462.83ZM2014.8,1521.15L2014.8,1519.47C2011.48,1497.81 2006.46,1479.49 1999.81,1466.15C1998.16,1462.83 1998.16,1462.83 1996.49,1462.83L1991.47,1462.83C1988.15,1464.49 1984.8,1464.49 1976.48,1466.15L1974.83,1466.15L1974.83,1469.5L1979.82,1469.5C1983.17,1469.5 1986.49,1469.5 1988.16,1472.83C1991.48,1476.17 1998.16,1497.83 2001.48,1514.49L2003.15,1526.14C2004.83,1527.81 2004.83,1531.15 2004.83,1532.82C2004.83,1536.15 2001.48,1541.14 1994.83,1547.81C1989.83,1554.48 1986.49,1557.81 1984.83,1557.81C1983.18,1557.81 1983.18,1557.81 1983.18,1556.14C1978.16,1554.48 1976.49,1552.82 1974.84,1552.82C1971.5,1552.82 1968.17,1556.14 1968.17,1559.49C1968.17,1562.82 1971.5,1566.15 1976.49,1566.15C1983.18,1566.15 1993.15,1557.81 2004.84,1542.82C2016.49,1527.83 2023.15,1514.49 2031.49,1496.15C2038.16,1484.51 2039.83,1477.84 2039.83,1472.83C2039.83,1466.15 2036.49,1462.83 2031.49,1462.83C2028.15,1462.83 2024.83,1464.49 2024.83,1467.83C2024.83,1471.16 2026.5,1472.83 2028.15,1472.83L2031.49,1476.17C2033.17,1477.84 2033.17,1479.5 2033.17,1481.16C2033.17,1482.83 2033.17,1487.84 2029.82,1492.83C2026.47,1502.82 2019.81,1512.82 2014.8,1521.15ZM510.256,1006.7L714.05,1006.7L714.05,1021.23L510.256,1021.23L510.256,1006.7Z" style="fill:white;"/>
    </g>
</svg>
