<?xml version="1.0" encoding="UTF-8" standalone="no"?>
<!DOCTYPE svg PUBLIC "-//W3C//DTD SVG 1.1//EN" "http://www.w3.org/Graphics/SVG/1.1/DTD/svg11.dtd">
<svg width="100%" height="100%" viewBox="0 0 300 100" version="1.1" xmlns="http://www.w3.org/2000/svg" xmlns:xlink="http://www.w3.org/1999/xlink" xml:space="preserve" xmlns:serif="http://www.serif.com/" style="fill-rule:evenodd;clip-rule:evenodd;stroke-linejoin:round;stroke-miterlimit:2;">
    <g transform="matrix(0.125472,0,0,0.125472,-6.83889,-106.841)">
        <path d="M1242.22,1194.39L1231.29,1194.39L1226.2,1194.2L1214.37,1194.57L1212.03,1194.57C1212.27,1191.89 1213.3,1188.82 1215.14,1185.32C1232.71,1184.87 1243.18,1184.52 1246.47,1184.16C1248.83,1178.38 1250.84,1173.69 1252.49,1170.18C1256.57,1161.04 1260.26,1151.71 1263.54,1142.25C1264.65,1138.96 1265.96,1135.75 1267.47,1132.62C1270.6,1132.38 1273.74,1132.27 1276.87,1132.29C1279.82,1132.29 1282.64,1132.51 1285.36,1133.03L1285.71,1135.92C1285.71,1138.23 1280.34,1151.52 1269.6,1175.83C1268.4,1178.6 1267.39,1181.45 1266.56,1184.36C1269.99,1184.85 1271.96,1185.09 1272.57,1185.09L1276.26,1185.09L1282.27,1185.29L1299.17,1184.92C1299.17,1188.87 1298.51,1192.05 1297.29,1194.58C1292.55,1195.06 1286.34,1195.29 1278.62,1195.29C1276.19,1195.23 1273.76,1195.31 1271.34,1195.51C1265.3,1196.09 1261.79,1196.71 1260.84,1197.33L1231.13,1268.29C1227.91,1275.05 1222.31,1288 1214.36,1307.02C1214.36,1307.75 1214.74,1308.56 1215.46,1309.52L1217.81,1309.87C1221.05,1309.87 1225.1,1307.77 1229.95,1303.62C1240.92,1294.13 1250.9,1283.55 1259.73,1272.05C1261.73,1273.14 1263.53,1274.43 1265.05,1275.85C1253.1,1290.54 1244.69,1300.19 1239.85,1304.88C1235.01,1309.53 1228.83,1314.39 1221.4,1319.41C1213.94,1324.46 1209.46,1327.26 1207.91,1327.87C1205.27,1328.95 1202.44,1329.51 1199.59,1329.52C1196.62,1329.52 1194.44,1328.86 1193.01,1327.57C1191.61,1326.33 1190.9,1324.46 1190.9,1322.05C1190.9,1318.51 1193.78,1310.37 1199.55,1297.52L1207.16,1280.67L1233.89,1216.31C1237.33,1207.99 1240.1,1200.66 1242.22,1194.39ZM1311.41,1260.91C1307.51,1271.54 1305.49,1282.77 1305.46,1294.1C1305.46,1302.26 1307.38,1308.82 1311.26,1313.73C1313.67,1317.02 1317.55,1318.91 1321.62,1318.78C1324.25,1318.78 1326.64,1318.27 1328.69,1317.16C1333.17,1314.9 1337.03,1312.22 1340.22,1309.15C1343.43,1306.04 1346.78,1302.01 1350.3,1297.02C1353.81,1292 1356.65,1286.41 1358.83,1280.22L1361.36,1280.22C1362.82,1280.22 1364.44,1280.32 1366.25,1280.6C1362.6,1293.99 1353.71,1307.17 1339.45,1320.09C1330.49,1328.12 1321.27,1332.1 1311.71,1332.1C1305.3,1332.1 1299.88,1329.23 1295.39,1323.43C1289.49,1315.84 1286.52,1305.34 1286.52,1291.94C1286.52,1286.15 1287.4,1279.23 1289.13,1271.14C1290.91,1263.04 1292.9,1256.29 1295.21,1250.86C1298.72,1242.64 1302.78,1234.66 1307.35,1226.98L1321.26,1206.69C1330.32,1197.06 1335.39,1191.74 1336.48,1190.78C1340.29,1187.4 1344.58,1184.62 1349.22,1182.53C1353.5,1180.68 1357.91,1179.74 1362.51,1179.74C1368.44,1179.74 1373.6,1182.21 1378.06,1187.17C1382.55,1192.12 1384.78,1198.34 1384.78,1205.81C1384.78,1212.48 1383.06,1219.03 1379.62,1225.49C1376.18,1231.95 1372.47,1236.71 1368.51,1239.71L1353.46,1249.51C1351.76,1250.34 1347.23,1251.92 1339.86,1254.14C1330.49,1256.87 1321,1259.13 1311.41,1260.91ZM1314.54,1251.65C1318.42,1251.76 1324.45,1250.27 1332.67,1247.15C1337.13,1245.47 1343.03,1242.13 1350.42,1237.19C1353.34,1235.25 1356.64,1231.99 1360.41,1227.33C1364.13,1222.69 1367,1217.85 1368.92,1212.87C1370.87,1207.85 1371.81,1202.69 1371.81,1197.38C1371.92,1194.21 1370.83,1191.11 1368.75,1188.7C1366.7,1186.43 1364.39,1185.32 1361.86,1185.32C1358.6,1185.32 1354.72,1187.17 1350.26,1190.88C1342.76,1197.38 1334.87,1208.29 1326.68,1223.63C1320.5,1235.34 1316.46,1244.67 1314.54,1251.65ZM1484.86,1210.17C1483.32,1209.01 1481.92,1207.68 1480.68,1206.21C1480.1,1205.41 1478.93,1203.1 1477.26,1199.35C1475.58,1195.59 1474.31,1193.3 1473.46,1192.44C1472.26,1191.23 1470.64,1190.52 1468.94,1190.47C1464.71,1190.47 1460.2,1193.06 1455.39,1198.26C1446.47,1207.78 1437.45,1223.58 1428.39,1245.5C1419.32,1267.46 1414.73,1285.71 1414.73,1300.19C1414.73,1305.64 1415.52,1309.41 1417.06,1311.59C1418.31,1313.18 1420.26,1314.08 1422.28,1313.98C1426.96,1313.98 1432.08,1311.4 1437.72,1306.28C1445.25,1299.47 1452.92,1289.96 1460.69,1277.81C1463.08,1277.33 1464.84,1277.07 1466.09,1277.07L1468.85,1277.25C1468.37,1279.4 1465,1285.15 1458.75,1294.5C1449.68,1307.79 1441.34,1317.07 1433.77,1322.36C1426.17,1327.62 1419.18,1330.26 1412.8,1330.26C1407.22,1330.26 1402.94,1328.26 1399.93,1324.28C1395.95,1319.09 1393.98,1310.88 1393.98,1299.69C1393.98,1290.01 1396.31,1278.29 1400.92,1264.37C1405.8,1250.06 1412.72,1236.53 1421.46,1224.19C1430.53,1211.3 1437.91,1202.04 1443.63,1196.4C1449.82,1190.49 1456.94,1185.64 1464.7,1182.05C1470.38,1179.28 1475.67,1177.88 1480.64,1177.88C1485.71,1177.88 1490.21,1180.07 1494.14,1184.46C1498.05,1188.86 1500.02,1193.98 1500.02,1199.87C1500.02,1203.48 1499.06,1206.28 1497.2,1208.25C1495.53,1210.14 1493.12,1211.23 1490.59,1211.22C1488.64,1211.17 1486.7,1210.81 1484.86,1210.17ZM1550.92,1092.24L1551.66,1088.5C1572.1,1086.41 1584.44,1085.39 1588.69,1085.39C1590.02,1085.39 1591.88,1085.43 1594.37,1085.56L1593.49,1089.01L1588.7,1101.15L1578.24,1131.44C1575.78,1138.51 1573.47,1145.63 1571.33,1152.81C1566.44,1169.17 1560.74,1185.29 1554.26,1201.09C1547.93,1216.38 1542.34,1231.97 1537.49,1247.8C1539.38,1245.36 1541.82,1242 1544.76,1237.65C1562.01,1213.24 1576.45,1196.59 1588.11,1187.67C1596.01,1181.65 1603.76,1178.6 1611.41,1178.6C1617.63,1178.6 1622.92,1181.21 1627.36,1186.4C1631.79,1191.6 1634,1199.55 1634,1210.33C1634,1224.04 1630.57,1240.3 1623.76,1259.08C1616.93,1277.85 1608.8,1293.07 1599.44,1304.8C1590.09,1316.5 1582.07,1324.02 1575.4,1327.39C1568.73,1330.79 1562.7,1332.49 1557.33,1332.49C1552.65,1332.49 1549.1,1331.19 1546.72,1328.69C1543.1,1324.94 1541.3,1321.06 1541.3,1317.07C1541.3,1315.29 1542.26,1313.57 1544.19,1311.94C1546.13,1310.32 1548.65,1309.51 1551.77,1309.51C1554.15,1309.51 1556.07,1310.01 1557.51,1311.05C1558.95,1312.03 1561.18,1314.75 1564.18,1319.23C1566.2,1321.13 1567.88,1322.07 1569.23,1322.07C1571.51,1322.07 1574.62,1319.52 1578.58,1314.32C1586.41,1303.95 1595.16,1284.28 1604.89,1255.21C1612.7,1232.23 1616.59,1214.8 1616.59,1203.01C1616.59,1196.5 1615.66,1192.1 1613.85,1189.83C1612.05,1187.55 1609.26,1186.27 1606.36,1186.38C1604.66,1186.38 1602.71,1186.93 1600.53,1188.01C1593.94,1191.26 1586.83,1196.86 1579.16,1204.83C1571.48,1212.75 1559.38,1228.09 1542.83,1250.83C1539.29,1255.93 1533.43,1267.52 1525.23,1285.62C1517,1303.71 1511.43,1316.44 1508.46,1323.86C1506.94,1327.53 1505.48,1329.87 1504.08,1330.93C1502.69,1331.97 1500.81,1332.48 1498.45,1332.48C1495.89,1332.48 1494.04,1331.97 1492.92,1331.01C1491.81,1330.05 1491.25,1328.67 1491.25,1326.86C1491.25,1324.71 1492.18,1321.36 1494.09,1316.76L1506.8,1284.33C1507.52,1282.81 1508.16,1281.22 1508.75,1279.65L1558.8,1133.36L1566.02,1112.37C1567.94,1106.96 1568.94,1103.27 1568.94,1101.28C1568.94,1099.81 1568.59,1098.68 1567.85,1097.88C1567.11,1097.09 1565.75,1096.48 1563.75,1096.11C1559.36,1095.23 1555.07,1093.93 1550.92,1092.24ZM1696.17,1200.71C1695.94,1199.78 1695.62,1199.15 1695.19,1198.78C1694.76,1198.43 1694.22,1198.25 1693.67,1198.26C1687.42,1198.26 1677.66,1208.22 1664.44,1228.11C1663.48,1228.23 1662.51,1228.3 1661.54,1228.32C1660.8,1228.32 1659.62,1228.26 1657.92,1228.11C1660.48,1223.02 1664.64,1216.62 1670.39,1208.89C1675.62,1201.67 1681.77,1195.17 1688.7,1189.56C1695.16,1184.42 1701.3,1180.61 1707.09,1178.02C1709.04,1177.19 1710.79,1176.77 1712.36,1176.77C1712.97,1176.77 1713.85,1176.81 1715.1,1176.93C1717.25,1179.12 1718.34,1181.35 1718.34,1183.63C1718.34,1185.09 1718.21,1186.53 1717.88,1187.98C1717.37,1190.24 1716.73,1192.46 1715.99,1194.66C1713.48,1201.98 1710.82,1209.25 1708.01,1216.46L1697.62,1243.18C1695.08,1249.61 1692.72,1256.12 1690.56,1262.68C1691.52,1261.46 1692.39,1260.32 1693.09,1259.23C1704.33,1242.85 1716.48,1227.12 1729.49,1212.1C1742.51,1197.1 1753.25,1187.06 1761.71,1181.99C1767.77,1178.29 1773.54,1176.36 1778.99,1176.36C1783.08,1176.36 1786.3,1177.5 1788.58,1179.77C1790.91,1182.05 1792.18,1185.21 1792.06,1188.47C1792.06,1190.64 1791.83,1192.78 1791.32,1194.81C1790.46,1199.42 1788.58,1205.8 1785.66,1214C1782.72,1222.19 1775.03,1240.01 1762.62,1267.35L1744.33,1309.13L1743.59,1311.49C1743.59,1312.2 1744.02,1313.27 1744.89,1314.68C1751.67,1313.24 1761.84,1302.5 1775.43,1282.44L1782.9,1282.64C1779.13,1289.39 1772.94,1298.07 1764.33,1308.71C1757.69,1316.82 1750.57,1323.07 1742.93,1327.56C1738.83,1330.07 1734.11,1331.4 1729.3,1331.38C1726.38,1331.38 1724.2,1330.78 1722.76,1329.56C1721.32,1328.36 1720.58,1327.05 1720.58,1325.6C1720.58,1319.25 1723.67,1309.34 1729.83,1295.96L1756.14,1238.55L1766.3,1214.5C1768.58,1209.18 1770.02,1205.49 1770.48,1203.44C1770.95,1201.42 1771.19,1199.36 1771.19,1197.29C1771.28,1195.89 1770.83,1194.5 1769.94,1193.41C1769.13,1192.48 1767.94,1191.95 1766.7,1191.99C1764.76,1191.99 1762.5,1192.76 1759.98,1194.33C1751.06,1199.68 1741.24,1208.82 1730.5,1221.71C1715.1,1240.35 1704.84,1253.7 1699.8,1261.8C1687.28,1281.49 1676.17,1302.05 1666.55,1323.31C1665.11,1326.73 1663.36,1329.23 1661.31,1330.83C1659.39,1331.13 1657.45,1331.32 1655.51,1331.38C1653.07,1331.29 1650.65,1330.97 1648.26,1330.45C1647.85,1329.69 1647.61,1328.86 1647.55,1328C1647.55,1327.07 1648.16,1324.86 1649.35,1321.49C1652.01,1313.66 1658.52,1297.09 1668.88,1271.87L1673.04,1262.11L1696.17,1200.71ZM1921.15,1223.35C1921.15,1251.4 1912.69,1276.26 1895.74,1298.01C1878.79,1319.75 1861.24,1330.62 1843.03,1330.62C1833.28,1330.62 1825.38,1326.98 1819.35,1319.7C1813.32,1312.36 1810.31,1300.93 1810.31,1285.36C1810.31,1274.84 1812.67,1262.71 1817.38,1249C1822.06,1235.29 1828.17,1223.89 1835.64,1214.84C1837.31,1212.8 1839.23,1210.34 1841.41,1207.42C1847.73,1199.15 1855.44,1192.03 1864.18,1186.38C1873,1180.69 1881.97,1177.88 1891.13,1177.88C1899.57,1177.88 1906.71,1181.4 1912.47,1188.47C1918.25,1195.51 1921.15,1207.16 1921.15,1223.35ZM1826.99,1306.07C1826.99,1311.67 1828.28,1315.8 1830.89,1318.45C1833.47,1321.14 1837.67,1322.46 1843.48,1322.46C1849.16,1322.46 1854.88,1319.7 1860.68,1314.1C1871.07,1303.89 1881.46,1286.35 1891.86,1261.45C1902.22,1236.56 1907.44,1216.93 1907.44,1202.6C1907.44,1197.49 1906.14,1193.45 1903.64,1190.5C1901.11,1187.51 1898.19,1186.02 1894.95,1186.02C1887.8,1186.02 1880.36,1190.2 1872.63,1198.59C1859.48,1212.69 1848.1,1232.09 1838.58,1256.87C1830.84,1277.07 1826.99,1293.46 1826.99,1306.07ZM2005.75,1092.6L2006.28,1087.41C2020.98,1086.17 2032.12,1085.56 2039.69,1085.56L2047.64,1085.56L2047.64,1087.8L2042.04,1105.34C2041.8,1105.83 2037.36,1116.97 2028.8,1138.84L2004.35,1202.54C1999.96,1214.49 1992.73,1232.96 1982.56,1257.96L1976.58,1273.7C1972.38,1285.15 1968.98,1292.88 1966.45,1296.87C1962.42,1303.38 1960.47,1308.25 1960.47,1311.39L1961.18,1314.3C1965.17,1313.98 1970.06,1311.22 1975.96,1306.12C1984.52,1299 1992.35,1289.83 1999.37,1278.71C2001.62,1278.26 2003.38,1277.98 2004.61,1277.98L2006.66,1278.16C2002.09,1286.95 1997.23,1294.16 1991.99,1299.69C1983.75,1308.35 1978.06,1313.85 1974.92,1316.16C1968.73,1320.98 1962,1325.07 1954.86,1328.32C1951.07,1330.05 1946.97,1330.96 1942.82,1331.01C1940.74,1331.01 1939.17,1330.45 1938.14,1329.39C1937.1,1328.32 1936.57,1326.94 1936.57,1325.26C1936.57,1319.58 1946.22,1294.72 1965.52,1250.53C1972.14,1235.39 1978.31,1220.05 1984.01,1204.54C1995.2,1174.39 2003.84,1152.88 2009.9,1140.09C2015.93,1127.28 2020.34,1115.75 2023.1,1105.5C2023.32,1104.66 2023.44,1103.8 2023.45,1102.94C2023.45,1101.21 2022.62,1099.6 2020.95,1098.1C2018.82,1096.28 2013.74,1094.43 2005.75,1092.6ZM2133.25,1223.35C2133.25,1251.4 2124.77,1276.26 2107.85,1298.01C2090.89,1319.75 2073.32,1330.62 2055.14,1330.62C2045.38,1330.62 2037.46,1326.98 2031.45,1319.7C2025.42,1312.36 2022.41,1300.93 2022.41,1285.36C2022.41,1274.84 2024.78,1262.71 2029.46,1249C2034.14,1235.29 2040.27,1223.89 2047.72,1214.84C2049.42,1212.8 2051.34,1210.34 2053.52,1207.42C2059.84,1199.14 2067.55,1192.02 2076.32,1186.38C2085.08,1180.69 2094.07,1177.88 2103.24,1177.88C2111.67,1177.88 2118.79,1181.4 2124.59,1188.47C2130.36,1195.51 2133.25,1207.16 2133.25,1223.35ZM2039.07,1306.07C2039.07,1311.67 2040.37,1315.8 2042.97,1318.45C2045.58,1321.14 2049.76,1322.46 2055.57,1322.46C2061.26,1322.46 2066.99,1319.7 2072.79,1314.1C2083.18,1303.89 2093.57,1286.35 2103.94,1261.45C2114.36,1236.56 2119.55,1216.93 2119.55,1202.6C2119.55,1197.49 2118.25,1193.45 2115.72,1190.5C2113.19,1187.51 2110.3,1186.02 2107.03,1186.02C2099.88,1186.02 2092.49,1190.2 2084.76,1198.59C2071.56,1212.69 2060.21,1232.09 2050.66,1256.87C2042.94,1277.07 2039.07,1293.46 2039.07,1306.07ZM2162.12,1335.1C2152.82,1327.57 2146.87,1322.2 2144.21,1318.93C2143.26,1317.83 2142.73,1316.41 2142.72,1314.95C2142.72,1313.15 2143.38,1311.5 2144.67,1310.06C2145.91,1308.62 2149,1306.85 2153.94,1304.82C2158.86,1302.75 2166.89,1298.11 2178.03,1290.87C2175.24,1287.54 2172.31,1284.33 2169.23,1281.27L2163.41,1274.94C2161.66,1271.55 2160.31,1267.98 2159.38,1264.28C2158.18,1259.92 2157.57,1255.43 2157.55,1250.91C2157.54,1243.78 2158.7,1236.7 2161,1229.95C2164.26,1219.95 2168.31,1211.48 2173.06,1204.54C2177.84,1197.62 2182.71,1192.23 2187.7,1188.37C2191.07,1185.71 2195.17,1183.56 2200.03,1181.87C2207.53,1179.2 2213.86,1177.88 2219.09,1177.88C2225.27,1177.88 2231.45,1179.37 2237.61,1182.38C2241.91,1184.4 2246.63,1185.41 2251.38,1185.33C2253.46,1185.33 2255.92,1185.12 2258.72,1184.76C2261.56,1184.4 2263.53,1184.22 2264.62,1184.22C2265.58,1184.22 2267.04,1184.32 2268.98,1184.58C2269.33,1188.16 2269.51,1190.73 2269.51,1192.32C2269.47,1193.67 2269.04,1194.97 2268.27,1196.07C2266.88,1196.25 2265.47,1196.36 2264.07,1196.4C2261.33,1196.4 2257.08,1195.62 2251.37,1194.09C2249.09,1193.46 2247.04,1192.96 2245.21,1192.48C2248.55,1199.82 2250.25,1207.99 2250.25,1216.86C2250.25,1234.36 2244.22,1250.84 2232.24,1266.25C2220.23,1281.7 2206.33,1291.05 2190.54,1294.32C2181.95,1295.99 2175.26,1298.78 2170.45,1302.66C2168.58,1303.97 2167.49,1306.14 2167.56,1308.43C2167.56,1312.46 2170.67,1316.94 2176.91,1321.88C2184.64,1325.73 2191.77,1329.13 2198.34,1332.09C2216.86,1338.57 2230.81,1345.82 2240.28,1353.85C2247.38,1360.04 2250.97,1368.41 2250.97,1378.96C2250.97,1384.56 2249.53,1389.62 2246.61,1394.16C2243.69,1398.75 2239.01,1403.03 2232.47,1407C2228.14,1409.68 2221.05,1412.16 2211.19,1414.39C2201.91,1416.58 2192.4,1417.71 2182.86,1417.76C2166.44,1417.76 2154.51,1417 2147.17,1415.38C2133.77,1412.62 2123.25,1409.24 2115.65,1405.25C2108.03,1401.24 2102,1396.26 2097.55,1390.2C2095.02,1386.73 2093.75,1383.13 2093.75,1379.52C2093.75,1374.2 2096.2,1369.56 2101.19,1365.56C2108.35,1359.88 2128.64,1349.71 2162.12,1335.1ZM2188.92,1286.13C2195.22,1285.2 2200.54,1282.89 2204.9,1279.3C2206.95,1277.7 2210.42,1272.84 2215.26,1264.73C2220.07,1256.6 2223.67,1249.29 2225.95,1242.75C2231.27,1227.7 2233.93,1215.37 2233.93,1205.69C2233.93,1199.21 2232.3,1194.16 2229.11,1190.61C2226.03,1187.12 2221.54,1185.18 2216.88,1185.32C2211.54,1185.32 2206.42,1187.54 2201.46,1192.08C2196.52,1196.59 2190.51,1207.64 2183.58,1225.23C2176.61,1242.83 2173.14,1256.51 2173.14,1266.26C2173.14,1271.34 2174.65,1275.72 2177.7,1279.47C2180.72,1283.18 2184.47,1285.39 2188.92,1286.13ZM2119.62,1393.13C2126.37,1399.35 2135.38,1403.74 2146.6,1406.53C2148.52,1407.04 2150.32,1407.57 2152.02,1408.18C2154.17,1408.79 2157.87,1409.48 2163.05,1410.15C2169.51,1410.51 2175.98,1410.71 2182.45,1410.73C2193.29,1410.73 2203.6,1408.96 2213.46,1405.47C2223.29,1401.95 2229.72,1398.32 2232.71,1394.57C2234.78,1392.16 2235.79,1389.02 2235.79,1385.12C2235.79,1378.5 2231.94,1371.85 2224.21,1365.18C2218.44,1360.35 2206.68,1354.58 2188.92,1347.81C2182.38,1345.22 2175.87,1342.55 2169.39,1339.8C2161.33,1342.46 2150.79,1347.3 2137.9,1354.32C2131.01,1358.04 2125.81,1361.57 2122.24,1364.81C2118.68,1368.1 2116.72,1370.07 2116.34,1370.81C2114.93,1373.58 2114.2,1376.63 2114.19,1379.74C2114.2,1384.92 2116.02,1389.39 2119.62,1393.13Z"/>
        <path d="M2208.45,1401.57C2210.98,1404.35 2213.16,1406.16 2215.04,1406.93C2216.92,1407.71 2220.09,1408.13 2224.56,1408.13C2230.94,1408.13 2238.47,1406.35 2247.1,1402.76C2255.69,1399.19 2262.1,1395.47 2266.18,1391.59C2273.91,1386.4 2282.85,1377.99 2292.98,1366.37C2298.37,1360.09 2303.08,1352.05 2307.01,1342.31C2310.91,1332.48 2313.82,1320.09 2315.7,1305.17C2317.58,1290.26 2318.51,1277.4 2318.51,1266.64C2318.51,1260.34 2318.22,1248.81 2317.61,1232C2317,1220.52 2316.06,1212.66 2314.79,1208.42C2313.52,1204.19 2311.87,1201.17 2309.8,1199.37C2308.65,1198.37 2307.17,1197.85 2305.65,1197.91C2302.86,1197.91 2300.46,1199.12 2298.37,1201.49C2294.2,1206.69 2290.01,1216.47 2285.91,1230.92L2284.47,1231.27C2283.25,1231.27 2281.73,1230.64 2279.93,1229.3C2284.16,1213.49 2287.2,1203.63 2289.02,1199.78C2292.77,1192.05 2296.06,1186.67 2298.85,1183.67C2300.55,1181.87 2303.34,1180.04 2307.23,1178.26C2309.12,1177.99 2310.65,1177.89 2311.74,1177.89C2318.79,1177.89 2324.41,1182.43 2328.67,1191.51C2334.52,1204.09 2337.39,1221.18 2337.39,1242.84C2337.39,1252.61 2336.7,1264.77 2335.31,1279.31C2333.9,1293.8 2332.39,1304.49 2330.82,1311.39C2328.7,1321.22 2327.55,1327.25 2327.32,1329.54C2327.9,1328.91 2328.59,1328.05 2329.32,1326.78C2336.57,1316.04 2343.24,1304.92 2349.3,1293.48C2353.64,1285.5 2357.57,1275.96 2361.13,1264.85C2364.69,1253.65 2367.48,1242.22 2369.5,1230.64C2370.72,1223.64 2371.33,1215.93 2371.33,1207.63C2371.33,1204.59 2371.25,1201.99 2371.14,1199.83C2370.96,1198.09 2370.84,1196.34 2370.77,1194.59C2370.77,1188.67 2371.94,1184.19 2374.22,1181.18C2375.28,1179.48 2377.36,1178.63 2380.5,1178.63C2383.61,1178.63 2385.94,1179.48 2387.43,1181.18C2388.93,1182.88 2389.69,1185.64 2389.69,1189.51C2389.69,1195.31 2386.29,1209.77 2379.41,1232.83C2370.03,1264.71 2360.38,1289.39 2350.41,1306.8C2335.18,1333.27 2317.61,1356.62 2297.67,1376.93C2284.12,1390.59 2270.09,1400.59 2255.52,1406.91C2240.95,1413.16 2228.28,1416.31 2217.57,1416.31C2203.03,1416.31 2193.12,1414.51 2187.83,1410.86C2182.51,1407.25 2179.85,1403.58 2179.85,1399.87C2179.85,1397.48 2180.74,1395.46 2182.54,1393.7C2184.22,1392.03 2186.5,1391.1 2188.87,1391.12C2192.27,1391.12 2195.81,1392.03 2199.55,1393.84C2201.38,1394.78 2204.35,1397.36 2208.45,1401.57Z"/>
        <path d="M281.833,1092.02L289.252,1092.02L281.651,1088.5L281.833,1092.02Z" style="fill:rgb(109,110,112);"/>
        <path d="M282.028,1095.53L296.865,1095.53L288.863,1091.83L281.82,1091.83L282.028,1095.53Z" style="fill:rgb(124,125,128);"/>
        <path d="M286.528,1099.08L300.561,1099.08L300.509,1097.22L296.541,1095.39L282.028,1095.39L282.092,1096.88L286.528,1099.08Z" style="fill:rgb(137,138,141);"/>
        <path d="M293.687,1102.62L300.678,1102.62L300.561,1098.91L286.191,1098.91L293.687,1102.62Z" style="fill:rgb(152,154,156);"/>
        <path d="M300.678,1102.44L293.324,1102.44L300.795,1106.15L300.678,1102.44Z" style="fill:rgb(166,168,170);"/>
        <path d="M340.586,1118.24L348.407,1118.24L341.546,1115.48L340.521,1115.48L340.521,1115.66L340.586,1118.24Z" style="fill:rgb(109,110,112);"/>
        <path d="M340.677,1121.44L356.357,1121.44L349.405,1118.64L340.599,1118.64L340.677,1121.44Z" style="fill:rgb(124,125,128);"/>
        <path d="M345.424,1124.67L358.134,1124.67L358.134,1122.17L357.447,1121.88L340.69,1121.88L340.703,1122.29L345.424,1124.67Z" style="fill:rgb(137,138,141);"/>
        <path d="M351.831,1127.89L358.134,1127.89L358.134,1125.11L346.306,1125.11L351.831,1127.89Z" style="fill:rgb(152,154,156);"/>
        <path d="M358.134,1131.07L358.134,1128.33L352.7,1128.33L358.134,1131.07Z" style="fill:rgb(166,168,170);"/>
        <path d="M469.687,1152.75L421.958,1109.02L469.713,1128.59L472.424,1131.07L469.687,1152.75Z" style="fill:rgb(82,83,85);"/>
        <path d="M420.441,1108.4L469.687,1152.73L470.271,1148.06L432.269,1113.23L420.441,1108.4Z" style="fill:rgb(82,83,85);"/>
        <path d="M409.533,1104.69L469,1158.23L469.674,1152.86L420.207,1108.31L409.624,1103.96L409.585,1104L409.533,1104.69ZM409.131,1110.44L468.299,1163.71L468.987,1158.34L409.52,1104.8L409.131,1110.44ZM408.742,1116.2L467.612,1169.2L468.299,1163.8L409.131,1110.54L408.742,1116.2Z" style="fill:rgb(80,80,82);"/>
        <path d="M408.353,1121.95L466.912,1174.68L467.599,1169.3L408.742,1116.32L408.353,1121.95ZM407.964,1127.69L466.237,1180.17L466.912,1174.8L408.34,1122.08L407.964,1127.69ZM407.562,1133.45L465.55,1185.66L466.224,1180.26L407.951,1127.83L407.562,1133.45Z" style="fill:rgb(78,78,80);"/>
        <path d="M407.173,1139.21L464.849,1191.14L465.524,1185.76L407.549,1133.56L407.173,1139.21ZM406.771,1144.97L464.162,1196.64L464.836,1191.26L407.16,1139.33L406.771,1144.97Z" style="fill:rgb(76,76,78);"/>
        <path d="M406.382,1150.74L463.462,1202.13L464.149,1196.73L406.771,1145.06L406.382,1150.74ZM405.98,1156.48L462.774,1207.62L463.449,1202.23L406.382,1150.85L405.98,1156.48ZM405.59,1162.25L462.074,1213.1L462.761,1207.73L405.98,1156.62L405.59,1162.25Z" style="fill:rgb(74,73,75);"/>
        <path d="M405.201,1167.99L461.386,1218.59L462.061,1213.22L405.578,1162.36L405.201,1167.99ZM404.799,1173.76L460.699,1224.07L461.373,1218.69L405.188,1168.1L404.799,1173.76Z" style="fill:rgb(71,71,73);"/>
        <path d="M404.41,1179.51L459.999,1229.56L460.686,1224.18L404.786,1173.86L404.41,1179.51ZM404.008,1185.26L459.324,1235.03L459.999,1229.66L404.397,1179.6L404.008,1185.26ZM403.619,1191.03L458.624,1240.56L459.311,1235.15L404.008,1185.38L403.619,1191.03Z" style="fill:rgb(69,69,70);"/>
        <path d="M403.217,1196.76L457.936,1246.03L458.611,1240.64L403.619,1191.12L403.217,1196.76ZM402.828,1202.52L457.236,1251.5L457.911,1246.16L403.217,1196.89L402.828,1202.52Z" style="fill:rgb(67,66,68);"/>
        <path d="M402.439,1208.29L456.549,1257L457.223,1251.63L402.828,1202.63L402.439,1208.29ZM388.639,1201.99L393.347,1206.23L390.286,1199.55L388.639,1201.99ZM402.037,1214.05L455.861,1262.5L456.536,1257.11L402.426,1208.39L402.037,1214.05ZM386.071,1205.79L398.146,1216.64L393.451,1206.42L388.587,1202.05L386.071,1205.79ZM401.648,1219.81L455.161,1267.99L455.848,1262.59L402.037,1214.15L401.648,1219.81Z" style="fill:rgb(63,63,64);"/>
        <path d="M383.516,1209.59L454.474,1273.49L455.148,1268.07L401.635,1219.91L401.375,1223.7L398.237,1216.84L386.032,1205.85L383.516,1209.59ZM380.961,1213.37L453.786,1278.96L454.461,1273.59L383.464,1209.66L380.961,1213.37Z" style="fill:rgb(59,59,60);"/>
        <path d="M378.38,1217.19L453.099,1284.43L453.773,1279.07L380.896,1213.45L378.38,1217.19ZM375.812,1221L452.398,1289.93L453.073,1284.54L378.341,1217.25L375.812,1221ZM373.257,1224.8L451.711,1295.41L452.385,1290.04L375.773,1221.05L373.257,1224.8Z" style="fill:rgb(54,54,55);"/>
        <path d="M370.702,1228.59L451.011,1300.93L451.698,1295.54L373.205,1224.87L370.702,1228.59ZM368.121,1232.4L450.323,1306.41L450.998,1301.02L370.65,1228.66L368.121,1232.4Z" style="fill:rgb(50,49,50);"/>
        <path d="M365.566,1236.19L449.623,1311.89L450.31,1306.52L368.069,1232.46L365.566,1236.19ZM362.985,1240L448.948,1317.37L449.623,1312L365.501,1236.28L362.985,1240ZM365.799,1248.61L448.248,1322.86L448.922,1317.47L362.946,1240.07L362.271,1241.06L365.799,1248.61Z" style="fill:rgb(45,44,45);"/>
        <path d="M370.715,1259.16L447.548,1328.34L448.235,1322.97L365.877,1248.82L370.715,1259.16ZM375.604,1269.69L446.873,1333.84L447.535,1328.47L370.819,1259.42L375.604,1269.69ZM380.52,1280.23L446.173,1339.34L446.86,1333.94L375.708,1269.9L380.52,1280.23Z" style="fill:rgb(39,39,40);"/>
        <path d="M385.423,1290.75L434.383,1334.82L445.875,1341.63L446.16,1339.43L380.611,1280.41L385.423,1290.75ZM390.325,1301.28L414.501,1323.05L433.955,1334.56L385.526,1290.97L390.325,1301.28Z" style="fill:rgb(33,33,34);"/>
        <path d="M414.125,1322.81L390.416,1301.46L395.111,1311.54L414.125,1322.81Z" style="fill:rgb(27,27,27);"/>
        <path d="M358.718,1141.37L362.622,1144.34C387.674,1164.25 402.287,1194.56 402.257,1226.56C402.294,1249.16 395.017,1271.17 381.519,1289.3L380.883,1290.13C361.022,1316.33 329.978,1331.76 297.098,1331.76C239.424,1331.76 191.965,1284.3 191.965,1226.62C191.965,1226.6 191.965,1226.55 191.965,1226.55C191.965,1168.87 239.424,1121.41 297.098,1121.41C319.223,1121.41 340.792,1128.4 358.718,1141.37Z" style="fill:rgb(255,242,45);"/>
        <path d="M349.263,1285.28C343.297,1293.12 333.992,1297.73 324.14,1297.73C306.822,1297.73 292.571,1283.48 292.571,1266.16C292.571,1259.26 294.837,1252.54 299.018,1247.04C304.984,1239.2 314.289,1234.59 324.14,1234.59C341.459,1234.59 355.71,1248.84 355.71,1266.16C355.71,1273.07 353.444,1279.78 349.263,1285.28Z" style="fill:rgb(255,242,50);"/>
        <path d="M348.342,1284.56C342.623,1292.37 333.505,1297 323.826,1297C307.156,1297 293.438,1283.28 293.438,1266.61C293.438,1259.79 295.733,1253.16 299.952,1247.81C305.71,1240.5 314.519,1236.22 323.826,1236.22C340.497,1236.22 354.214,1249.94 354.214,1266.61C354.214,1273.07 352.157,1279.36 348.342,1284.56Z" style="fill:rgb(255,242,57);"/>
        <path d="M347.434,1283.85C341.899,1290.96 333.376,1295.13 324.364,1295.13C308.327,1295.13 295.13,1281.93 295.13,1265.9C295.13,1259.63 297.144,1253.53 300.873,1248.5C306.396,1241.22 315.02,1236.94 324.153,1236.94C340.189,1236.94 353.385,1250.14 353.385,1266.17C353.385,1272.56 351.294,1278.77 347.434,1283.85Z" style="fill:rgb(255,242,63);"/>
        <path d="M346.5,1283.15C341.196,1290.14 332.909,1294.26 324.134,1294.26C308.732,1294.26 296.058,1281.58 296.058,1266.18C296.058,1260.05 298.064,1254.09 301.768,1249.21C307.072,1242.22 315.358,1238.1 324.134,1238.1C339.536,1238.1 352.21,1250.78 352.21,1266.18C352.21,1272.31 350.204,1278.27 346.5,1283.15Z" style="fill:rgb(255,242,70);"/>
        <path d="M345.553,1282.44C340.49,1289.28 332.464,1293.33 323.95,1293.33C309.207,1293.33 297.076,1281.2 297.076,1266.45C297.076,1260.47 299.075,1254.65 302.753,1249.93C307.817,1243.09 315.843,1239.05 324.357,1239.05C339.099,1239.05 351.23,1251.18 351.23,1265.92C351.23,1271.9 349.232,1277.72 345.553,1282.44Z" style="fill:rgb(255,242,75);"/>
        <path d="M344.62,1281.7C339.763,1288.1 332.176,1291.87 324.14,1291.87C310.038,1291.87 298.434,1280.26 298.434,1266.16C298.434,1260.55 300.27,1255.09 303.661,1250.62C308.541,1244.59 315.897,1241.08 323.654,1241.08C337.763,1241.08 349.373,1252.69 349.373,1266.8C349.373,1272.14 347.712,1277.35 344.62,1281.7Z" style="fill:rgb(255,243,83);"/>
        <path d="M343.699,1281.02C339.037,1286.77 332.021,1290.11 324.621,1290.11C311.145,1290.11 300.056,1279.03 300.056,1265.55C300.056,1260.45 301.643,1255.48 304.595,1251.32C309.234,1245.21 316.477,1241.62 324.147,1241.62C337.616,1241.62 348.699,1252.7 348.699,1266.17C348.699,1271.54 346.942,1276.75 343.699,1281.02Z" style="fill:rgb(255,243,88);"/>
        <path d="M342.765,1280.31C338.349,1286.13 331.451,1289.55 324.147,1289.55C311.325,1289.55 300.774,1279 300.774,1266.18C300.774,1261.08 302.444,1256.11 305.529,1252.05C309.945,1246.23 316.842,1242.81 324.147,1242.81C336.969,1242.81 347.52,1253.36 347.52,1266.18C347.52,1271.28 345.849,1276.25 342.765,1280.31Z" style="fill:rgb(255,243,95);"/>
        <path d="M341.844,1279.6C337.645,1285.13 331.086,1288.39 324.14,1288.39C311.948,1288.39 301.915,1278.35 301.915,1266.16C301.915,1261.31 303.504,1256.59 306.437,1252.72C310.636,1247.19 317.195,1243.93 324.14,1243.93C336.333,1243.93 346.366,1253.97 346.366,1266.16C346.366,1271.01 344.777,1275.73 341.844,1279.6Z" style="fill:rgb(255,243,100);"/>
        <path d="M340.884,1278.88C336.908,1284.12 330.698,1287.2 324.121,1287.2C312.576,1287.2 303.076,1277.7 303.076,1266.16C303.076,1261.57 304.58,1257.1 307.357,1253.44C311.334,1248.2 317.544,1245.12 324.121,1245.12C335.666,1245.12 345.166,1254.62 345.166,1266.16C345.166,1270.75 343.662,1275.22 340.884,1278.88Z" style="fill:rgb(255,244,107);"/>
        <path d="M339.963,1278.21C336.206,1283.16 330.339,1286.07 324.127,1286.07C313.218,1286.07 304.24,1277.09 304.24,1266.18C304.24,1261.84 305.664,1257.61 308.291,1254.15C312.049,1249.2 317.915,1246.29 324.127,1246.29C335.037,1246.29 344.014,1255.27 344.014,1266.18C344.014,1270.52 342.591,1274.75 339.963,1278.21Z" style="fill:rgb(255,244,112);"/>
        <path d="M339.056,1277.52C332.821,1285.65 321.024,1287.26 312.844,1281.09C308.184,1277.56 305.441,1272.04 305.441,1266.2C305.441,1262.11 306.785,1258.13 309.264,1254.88C312.786,1250.21 318.302,1247.47 324.146,1247.47C328.229,1247.47 332.202,1248.81 335.45,1251.28C343.673,1257.54 345.294,1269.26 339.056,1277.52Z" style="fill:rgb(255,244,116);"/>
        <path d="M338.109,1276.76C334.796,1281.13 329.618,1283.7 324.134,1283.7C314.513,1283.7 306.596,1275.78 306.596,1266.16C306.596,1262.34 307.848,1258.61 310.159,1255.56C313.472,1251.19 318.65,1248.62 324.134,1248.62C333.755,1248.62 341.672,1256.54 341.672,1266.16C341.672,1269.99 340.42,1273.71 338.109,1276.76Z" style="fill:rgb(255,245,123);"/>
        <path d="M337.175,1276.08C334.082,1280.15 329.253,1282.55 324.14,1282.55C315.16,1282.55 307.771,1275.16 307.771,1266.18C307.771,1262.6 308.943,1259.12 311.106,1256.28C314.199,1252.21 319.027,1249.81 324.14,1249.81C333.12,1249.81 340.51,1257.2 340.51,1266.18C340.51,1269.76 339.338,1273.24 337.175,1276.08Z" style="fill:rgb(255,245,129);"/>
        <path d="M336.254,1275.37C331.196,1281.99 321.597,1283.31 314.945,1278.29C308.318,1273.24 307.002,1263.65 312.027,1257C314.915,1253.5 319.224,1251.47 323.764,1251.47C332.11,1251.47 338.977,1258.34 338.977,1266.68C338.977,1269.79 338.027,1272.82 336.254,1275.37Z" style="fill:rgb(255,245,133);"/>
        <path d="M334.386,1273.95C331.956,1277.15 328.163,1279.03 324.147,1279.03C317.091,1279.03 311.286,1273.23 311.286,1266.17C311.286,1263.36 312.207,1260.63 313.907,1258.39C316.333,1255.19 320.123,1253.31 324.137,1253.31C326.95,1253.31 329.686,1254.24 331.922,1255.94C335.125,1258.37 337.011,1262.16 337.011,1266.18C337.011,1268.99 336.089,1271.72 334.386,1273.95Z" style="fill:rgb(255,246,142);"/>
        <path d="M333.453,1273.24C331.245,1276.15 327.801,1277.85 324.153,1277.85C317.745,1277.85 312.473,1272.58 312.473,1266.17C312.473,1263.62 313.309,1261.14 314.854,1259.11C317.046,1256.04 320.591,1254.22 324.359,1254.22C330.77,1254.22 336.045,1259.49 336.045,1265.9C336.045,1268.57 335.13,1271.16 333.453,1273.24Z" style="fill:rgb(255,246,146);"/>
        <path d="M332.532,1272.53C330.543,1275.14 327.44,1276.68 324.153,1276.68C318.38,1276.68 313.629,1271.93 313.629,1266.16C313.629,1263.86 314.383,1261.62 315.775,1259.79C317.763,1257.18 320.867,1255.64 324.153,1255.64C329.927,1255.64 334.677,1260.39 334.677,1266.16C334.677,1268.46 333.923,1270.7 332.532,1272.53Z" style="fill:rgb(255,247,152);"/>
        <path d="M331.585,1271.83C329.82,1274.16 327.058,1275.53 324.134,1275.53C319.007,1275.53 314.788,1271.31 314.788,1266.19C314.788,1264.15 315.453,1262.17 316.683,1260.54C318.448,1258.21 321.209,1256.84 324.134,1256.84C329.261,1256.84 333.48,1261.06 333.48,1266.19C333.48,1268.22 332.814,1270.2 331.585,1271.83Z" style="fill:rgb(255,247,155);"/>
        <path d="M330.651,1271.14C327.925,1274.69 322.779,1275.39 319.199,1272.71C317.156,1271.16 315.954,1268.75 315.954,1266.19C315.954,1261.7 319.646,1258.01 324.134,1258.01C325.915,1258.01 327.648,1258.59 329.069,1259.66C331.116,1261.2 332.323,1263.62 332.323,1266.19C332.323,1267.98 331.735,1269.72 330.651,1271.14Z" style="fill:rgb(255,247,161);"/>
        <path d="M329.73,1270.43C328.404,1272.16 326.339,1273.18 324.153,1273.18C320.303,1273.18 317.135,1270.02 317.135,1266.17C317.135,1264.63 317.642,1263.13 318.576,1261.91C319.903,1260.17 321.968,1259.15 324.153,1259.15C328.003,1259.15 331.172,1262.32 331.172,1266.17C331.172,1267.71 330.665,1269.2 329.73,1270.43Z" style="fill:rgb(255,248,165);"/>
        <path d="M328.809,1269.71C327.706,1271.17 325.984,1272.02 324.16,1272.02C320.956,1272.02 318.319,1269.38 318.319,1266.18C318.319,1264.9 318.738,1263.66 319.51,1262.65C320.621,1261.34 322.251,1260.59 323.964,1260.59C327.173,1260.59 329.813,1263.23 329.813,1266.44C329.813,1267.61 329.464,1268.75 328.809,1269.71Z" style="fill:rgb(255,248,170);"/>
        <path d="M327.876,1269.01C326.306,1271.06 323.375,1271.45 321.313,1269.9C319.251,1268.34 318.849,1265.41 320.418,1263.36C321.299,1262.19 322.684,1261.5 324.15,1261.5C325.173,1261.5 326.168,1261.83 326.981,1262.45C329.014,1264.01 329.417,1266.96 327.876,1269.01Z" style="fill:rgb(255,248,174);"/>
        <path d="M326.942,1268.3C326.279,1269.18 325.241,1269.7 324.14,1269.7C322.215,1269.7 320.631,1268.11 320.631,1266.19C320.631,1265.42 320.879,1264.68 321.339,1264.07C322.501,1262.53 324.717,1262.21 326.267,1263.36C327.824,1264.55 328.122,1266.73 326.942,1268.3Z" style="fill:rgb(255,249,180);"/>
        <path d="M325.995,1267.56C325.567,1268.16 324.874,1268.52 324.137,1268.52C323.631,1268.52 323.139,1268.35 322.74,1268.04C322.15,1267.6 321.802,1266.91 321.802,1266.17C321.802,1265.65 321.972,1265.15 322.286,1264.75C322.727,1264.17 323.413,1263.83 324.139,1263.83C324.656,1263.83 325.158,1264 325.567,1264.32C326.605,1265.08 326.786,1266.58 325.995,1267.56Z" style="fill:rgb(255,249,184);"/>
        <path d="M325.087,1266.89C324.872,1267.17 324.534,1267.34 324.175,1267.34C323.918,1267.34 323.668,1267.25 323.466,1267.09C323.157,1266.88 322.972,1266.53 322.972,1266.16C322.972,1265.91 323.055,1265.67 323.207,1265.47C323.603,1264.97 324.333,1264.87 324.854,1265.24C325.355,1265.64 325.459,1266.37 325.087,1266.89Z" style="fill:rgb(255,249,190);"/>
        <path d="M342.596,1194.13L328.174,1212.35L306.696,1224.41L306.709,1239.51L296.761,1252.09L296.631,1219.83L342.596,1194.13Z" style="fill:rgb(141,142,145);"/>
        <path d="M447.613,1326.66L456.977,1314.84L454.655,1334.98L445.849,1341.66L447.613,1326.66Z" style="fill:rgb(103,104,106);"/>
        <path d="M296.748,1250.7L306.709,1237.95L306.709,1233.32L296.735,1245.93L296.748,1250.7ZM325.554,1213.81L339.678,1195.74L333.79,1199.03L319.355,1217.29L325.554,1213.81Z" style="fill:rgb(141,142,145);"/>
        <path d="M296.774,1256.95L306.722,1244.23L306.709,1237.25L296.748,1249.99L296.774,1256.95ZM334.296,1208.91L348.394,1190.87L338.692,1196.29L324.568,1214.37L334.296,1208.91Z" style="fill:rgb(141,142,145);"/>
        <path d="M296.8,1263.23L306.722,1250.53L306.722,1243.5L296.774,1256.2L296.8,1263.23ZM343.102,1203.98L357.174,1185.97L347.421,1191.42L333.323,1209.46L343.102,1203.98Z" style="fill:rgb(139,140,143);"/>
        <path d="M296.826,1269.49L306.722,1256.82L306.722,1249.81L296.8,1262.5L296.826,1269.49ZM351.844,1199.07L365.89,1181.08L356.163,1186.53L342.091,1204.54L351.844,1199.07Z" style="fill:rgb(137,138,141);"/>
        <path d="M296.852,1275.75L306.735,1263.1L306.735,1256.08L296.839,1268.75L296.852,1275.75ZM360.611,1194.15L374.645,1176.19L364.904,1181.65L350.845,1199.64L360.611,1194.15Z" style="fill:rgb(137,138,141);"/>
        <path d="M296.878,1282.01L306.735,1269.39L306.735,1262.4L296.852,1275.07L296.878,1282.01ZM369.353,1189.24L383.36,1171.31L373.659,1176.73L359.639,1194.68L369.353,1189.24Z" style="fill:rgb(137,138,141);"/>
        <path d="M296.904,1288.26L306.748,1275.67L306.748,1268.7L296.891,1281.32L296.904,1288.26ZM378.133,1184.31L392.115,1166.41L382.401,1171.83L368.406,1189.77L378.133,1184.31Z" style="fill:rgb(135,137,139);"/>
        <path d="M296.943,1294.54L306.748,1281.97L306.748,1274.98L296.904,1287.57L296.943,1294.54ZM386.888,1179.41L400.844,1161.55L391.129,1166.98L377.148,1184.88L386.888,1179.41Z" style="fill:rgb(135,137,139);"/>
        <path d="M296.956,1300.8L306.748,1288.26L306.748,1281.24L296.943,1293.81L296.956,1300.8ZM395.643,1174.48L409.585,1156.64L399.845,1162.09L385.889,1179.96L395.643,1174.48Z" style="fill:rgb(135,137,139);"/>
        <path d="M296.982,1307.05L306.748,1294.56L306.748,1287.52L296.956,1300.06L296.982,1307.05ZM404.41,1169.56L418.327,1151.75L408.574,1157.2L394.631,1175.04L404.41,1169.56Z" style="fill:rgb(133,135,137);"/>
        <path d="M297.021,1313.34L306.761,1300.85L306.761,1293.81L296.995,1306.33L297.021,1313.34ZM413.178,1164.65L427.068,1146.86L417.289,1152.34L403.373,1170.14L413.178,1164.65Z" style="fill:rgb(131,133,135);"/>
        <path d="M297.047,1319.57L306.774,1307.11L306.774,1300.09L297.034,1312.58L297.047,1319.57ZM421.919,1159.73L435.784,1141.99L426.018,1147.45L412.127,1165.23L421.919,1159.73Z" style="fill:rgb(131,133,135);"/>
        <path d="M297.072,1325.86L306.787,1313.45L306.787,1306.41L297.047,1318.87L297.072,1325.86ZM430.687,1154.82L444.539,1137.1L434.785,1142.55L420.921,1160.3L430.687,1154.82Z" style="fill:rgb(131,133,135);"/>
        <path d="M297.098,1332.11L306.787,1319.73L306.787,1312.68L297.072,1325.12L297.098,1332.11ZM439.442,1149.9L453.267,1132.21L443.54,1137.66L429.688,1155.37L439.442,1149.9Z" style="fill:rgb(130,131,133);"/>
        <path d="M297.124,1338.36L306.8,1325.98L306.787,1318.99L297.098,1331.4L297.124,1338.36ZM448.196,1145L461.983,1127.33L452.269,1132.77L438.443,1150.46L448.196,1145Z" style="fill:rgb(130,131,133);"/>
        <path d="M297.15,1344.65L306.8,1332.29L306.787,1325.25L297.111,1337.64L297.15,1344.65ZM456.951,1140.07L470.725,1122.44L460.984,1127.89L447.185,1145.55L456.951,1140.07Z" style="fill:rgb(128,129,131);"/>
        <path d="M297.176,1350.88L306.813,1338.55L306.8,1331.55L297.15,1343.91L297.176,1350.88ZM465.718,1135.15L479.466,1117.55L469.726,1123L455.952,1140.63L465.718,1135.15Z" style="fill:rgb(128,129,131);"/>
        <path d="M297.202,1357.14L306.813,1344.84L306.813,1337.87L297.176,1350.2L297.202,1357.14ZM470.18,1135.75L478.779,1124.75L479.609,1117.5L479.596,1117.49L478.455,1118.12L464.694,1135.72L470.569,1132.44L470.18,1135.75Z" style="fill:rgb(126,127,130);"/>
        <path d="M297.228,1363.39L306.813,1351.14L306.813,1344.15L297.202,1356.43L297.228,1363.39ZM469.298,1143.19L477.936,1132.14L478.883,1123.91L470.284,1134.92L469.298,1143.19Z" style="fill:rgb(126,127,130);"/>
        <path d="M297.241,1369.7L306.813,1357.44L306.813,1350.42L297.228,1362.68L297.241,1369.7ZM468.429,1150.61L477.08,1139.54L478.027,1131.3L469.402,1142.35L468.429,1150.61Z" style="fill:rgb(124,125,128);"/>
        <path d="M297.267,1375.94L306.813,1363.73L306.813,1356.71L297.241,1368.97L297.267,1375.94ZM467.547,1158.01L476.237,1146.88L477.184,1138.63L468.533,1149.7L467.547,1158.01Z" style="fill:rgb(124,125,128);"/>
        <path d="M297.306,1382.21L306.826,1370.01L306.826,1362.97L297.28,1375.2L297.306,1382.21ZM466.665,1165.41L475.381,1154.24L476.328,1146L467.638,1157.11L466.665,1165.41Z" style="fill:rgb(122,123,126);"/>
        <path d="M297.332,1388.48L306.839,1376.31L306.839,1369.32L297.319,1381.5L297.332,1388.48ZM465.796,1172.83L474.551,1161.64L475.498,1153.38L466.782,1164.54L465.796,1172.83Z" style="fill:rgb(122,123,126);"/>
        <path d="M297.358,1394.73L306.839,1382.56L306.839,1375.57L297.332,1387.74L297.358,1394.73ZM464.914,1180.25L473.695,1169L474.642,1160.76L465.9,1171.96L464.914,1180.25Z" style="fill:rgb(120,122,124);"/>
        <path d="M297.384,1400.99L306.839,1388.85L306.839,1381.86L297.358,1394L297.384,1400.99ZM464.045,1187.65L472.852,1176.37L473.798,1168.17L465.018,1179.41L464.045,1187.65Z" style="fill:rgb(120,122,124);"/>
        <path d="M297.41,1407.25L306.852,1395.16L306.852,1388.14L297.397,1400.26L297.41,1407.25ZM463.163,1195.09L471.996,1183.76L472.942,1175.53L464.136,1186.8L463.163,1195.09Z" style="fill:rgb(120,122,124);"/>
        <path d="M297.436,1413.52L306.852,1401.46L306.852,1394.42L297.397,1406.51L297.436,1413.52ZM462.294,1202.49L471.166,1191.14L472.099,1182.95L463.267,1194.26L462.294,1202.49Z" style="fill:rgb(118,120,122);"/>
        <path d="M297.462,1419.79L306.865,1407.75L306.865,1400.74L297.436,1412.8L297.462,1419.79ZM461.412,1209.92L470.31,1198.54L471.256,1190.31L462.385,1201.66L461.412,1209.92Z" style="fill:rgb(118,120,122);"/>
        <path d="M297.487,1426.01L306.865,1414L306.865,1407.01L297.449,1419.05L297.487,1426.01ZM460.53,1217.32L469.467,1205.89L470.4,1197.69L461.503,1209.08L460.53,1217.32Z" style="fill:rgb(117,118,120);"/>
        <path d="M297.513,1432.28L306.878,1420.29L306.878,1413.33L297.487,1425.34L297.513,1432.28ZM459.661,1224.75L468.611,1213.28L469.557,1205.09L460.634,1216.51L459.661,1224.75Z" style="fill:rgb(117,118,120);"/>
        <path d="M297.539,1438.53L306.878,1426.57L306.878,1419.61L297.513,1431.59L297.539,1438.53ZM458.792,1232.14L467.781,1220.62L468.714,1212.43L459.765,1223.89L458.792,1232.14Z" style="fill:rgb(115,116,118);"/>
        <path d="M297.565,1444.83L306.891,1432.9L306.878,1425.86L297.539,1437.82L297.565,1444.83ZM457.911,1239.59L466.925,1228.03L467.871,1219.79L458.883,1231.3L457.911,1239.59Z" style="fill:rgb(115,116,118);"/>
        <path d="M297.591,1451.12L306.891,1439.22L306.891,1432.15L297.565,1444.08L297.591,1451.12ZM457.029,1247.04L466.081,1235.45L467.028,1227.17L458.014,1238.72L457.029,1247.04Z" style="fill:rgb(115,116,118);"/>
        <path d="M301.534,1452.35L306.904,1445.49L306.891,1438.42L297.591,1450.36L297.604,1455.4L301.534,1452.35ZM456.147,1254.45L465.225,1242.82L466.172,1234.55L457.132,1246.15L456.147,1254.45Z" style="fill:rgb(113,114,116);"/>
        <path d="M455.278,1261.84L464.395,1250.18L465.342,1241.93L456.263,1253.54L455.278,1261.84ZM306.891,1444.71L299.991,1453.56L306.904,1448.19L306.891,1444.71Z" style="fill:rgb(113,114,116);"/>
        <path d="M454.409,1269.23L463.552,1257.54L464.486,1249.34L455.381,1261.01L454.409,1269.23Z" style="fill:rgb(111,112,114);"/>
        <path d="M453.527,1276.69L462.696,1264.93L463.643,1256.72L454.499,1268.43L453.527,1276.69Z" style="fill:rgb(111,112,114);"/>
        <path d="M452.645,1284.11L461.84,1272.33L462.787,1264.07L453.63,1275.82L452.645,1284.11Z" style="fill:rgb(109,110,112);"/>
        <path d="M451.776,1291.5L460.997,1279.7L461.944,1271.44L452.762,1283.22L451.776,1291.5Z" style="fill:rgb(109,110,112);"/>
        <path d="M450.894,1298.92L460.154,1287.07L461.101,1278.82L451.88,1290.65L450.894,1298.92Z" style="fill:rgb(107,108,110);"/>
        <path d="M450.012,1306.35L459.311,1294.45L460.258,1286.21L450.998,1298.07L450.012,1306.35Z" style="fill:rgb(107,108,110);"/>
        <path d="M449.143,1313.77L458.455,1301.84L459.402,1293.6L450.116,1305.49L449.143,1313.77Z" style="fill:rgb(105,106,108);"/>
        <path d="M448.261,1321.19L457.612,1309.23L458.559,1300.98L449.234,1312.92L448.261,1321.19Z" style="fill:rgb(105,106,108);"/>
        <path d="M447.392,1328.6L456.769,1316.59L457.716,1308.38L448.365,1320.34L447.392,1328.6Z" style="fill:rgb(103,104,106);"/>
        <path d="M456.86,1315.72L447.496,1327.73L446.757,1333.97L456.134,1322.11L456.86,1315.72Z" style="fill:rgb(103,104,106);"/>
        <path d="M158.037,1145.06L163.406,1138.19L157.583,1140.64L158.037,1145.06ZM158.594,1150.63L170.721,1135.11L164.042,1137.91L158.075,1145.55L158.594,1150.63Z" style="fill:rgb(139,140,143);"/>
        <path d="M159.178,1156.23L178.101,1132.01L171.408,1134.83L158.646,1151.14L159.178,1156.23ZM159.736,1161.81L168.555,1150.52L168.205,1147.07L172.835,1145.04L185.416,1128.94L178.749,1131.74L159.217,1156.73L159.736,1161.81Z" style="fill:rgb(137,138,141);"/>
        <path d="M160.306,1167.43L169.126,1156.15L168.607,1151.04L159.788,1162.32L160.306,1167.43ZM180.409,1141.7L192.809,1125.83L186.103,1128.64L173.548,1144.72L180.409,1141.7ZM160.877,1173L169.683,1161.71L169.165,1156.62L160.345,1167.9L160.877,1173ZM187.919,1138.39L200.136,1122.75L193.457,1125.56L181.071,1141.4L187.919,1138.39ZM161.448,1178.6L170.267,1167.32L169.748,1162.21L160.942,1173.49L161.448,1178.6ZM195.454,1135.08L207.49,1119.67L200.785,1122.48L188.58,1138.11L195.454,1135.08Z" style="fill:rgb(135,137,139);"/>
        <path d="M162.018,1184.2L170.825,1172.92L170.306,1167.8L161.5,1179.08L162.018,1184.2ZM203.003,1131.76L214.87,1116.57L208.139,1119.38L196.116,1134.78L203.003,1131.76ZM162.589,1189.79L171.395,1178.52L170.877,1173.41L162.07,1184.68L162.589,1189.79ZM210.538,1128.43L222.224,1113.47L215.506,1116.3L203.651,1131.46L210.538,1128.43Z" style="fill:rgb(133,135,137);"/>
        <path d="M163.16,1195.37L171.953,1184.1L171.434,1178.99L162.628,1190.26L163.16,1195.37ZM218.022,1125.13L229.539,1110.39L222.821,1113.21L211.148,1128.15L218.022,1125.13ZM163.73,1200.96L172.524,1189.7L172.005,1184.61L163.199,1195.88L163.73,1200.96ZM225.57,1121.81L236.906,1107.31L230.187,1110.13L218.696,1124.84L225.57,1121.81Z" style="fill:rgb(131,133,135);"/>
        <path d="M164.288,1206.55L173.082,1195.29L172.563,1190.2L163.756,1201.45L164.288,1206.55ZM233.08,1118.5L244.234,1104.22L237.528,1107.03L226.219,1121.51L233.08,1118.5ZM164.859,1212.13L173.652,1200.88L173.133,1195.77L164.34,1207.03L164.859,1212.13ZM240.615,1115.18L251.587,1101.13L244.895,1103.95L233.767,1118.2L240.615,1115.18Z" style="fill:rgb(130,131,133);"/>
        <path d="M165.429,1217.76L174.223,1206.5L173.704,1201.39L164.911,1212.65L165.429,1217.76ZM248.151,1111.86L258.941,1098.05L252.262,1100.85L241.302,1114.88L248.151,1111.86ZM166,1223.32L174.781,1212.08L174.262,1206.97L165.468,1218.21L166,1223.32ZM255.66,1108.55L266.269,1094.97L259.59,1097.77L248.799,1111.57L255.66,1108.55Z" style="fill:rgb(128,129,131);"/>
        <path d="M166.571,1228.88L175.338,1217.64L174.832,1212.58L166.052,1223.83L166.571,1228.88ZM263.182,1105.23L273.623,1091.87L266.957,1094.67L256.36,1108.24L263.182,1105.23ZM167.141,1234.49L175.922,1223.26L175.403,1218.18L166.623,1229.42L167.141,1234.49ZM270.718,1101.91L280.977,1088.77L274.311,1091.57L263.883,1104.92L270.718,1101.91Z" style="fill:rgb(126,127,130);"/>
        <path d="M167.712,1240.07L176.48,1228.83L175.961,1223.74L167.193,1234.97L167.712,1240.07ZM278.227,1098.6L281.963,1093.83L281.664,1088.51L281.651,1088.5L281.638,1088.5L271.392,1101.61L278.227,1098.6ZM168.283,1245.68L177.05,1234.45L176.531,1229.35L167.751,1240.58L168.283,1245.68ZM281.989,1094.38L278.928,1098.29L282.131,1096.88L281.989,1094.38ZM168.853,1251.28L177.621,1240.07L177.102,1234.93L168.335,1246.16L168.853,1251.28Z" style="fill:rgb(124,125,128);"/>
        <path d="M169.411,1256.82L178.179,1245.62L177.66,1240.53L168.892,1251.76L169.411,1256.82ZM169.982,1262.48L178.749,1251.26L178.231,1246.11L169.463,1257.33L169.982,1262.48Z" style="fill:rgb(122,123,126);"/>
        <path d="M170.552,1268.05L179.32,1256.82L178.801,1251.74L170.034,1262.96L170.552,1268.05ZM171.123,1273.64L179.878,1262.42L179.372,1257.33L170.604,1268.53L171.123,1273.64Z" style="fill:rgb(120,122,124);"/>
        <path d="M171.694,1279.22L180.448,1268.03L179.93,1262.93L171.175,1274.12L171.694,1279.22ZM172.264,1284.81L181.019,1273.62L180.5,1268.53L171.746,1279.75L172.264,1284.81ZM172.835,1290.39L181.577,1279.19L181.058,1274.12L172.316,1285.33L172.835,1290.39Z" style="fill:rgb(118,120,122);"/>
        <path d="M173.406,1295.96L182.134,1284.77L181.616,1279.7L172.887,1290.89L173.406,1295.96ZM173.963,1301.57L182.705,1290.36L182.186,1285.3L173.458,1296.47L173.963,1301.57Z" style="fill:rgb(117,118,120);"/>
        <path d="M174.547,1307.18L183.276,1296.02L182.757,1290.87L174.015,1302.07L174.547,1307.18ZM175.105,1312.74L183.833,1301.57L183.328,1296.5L174.586,1307.66L175.105,1312.74Z" style="fill:rgb(115,116,118);"/>
        <path d="M175.675,1318.35L184.404,1307.18L183.885,1302.07L175.157,1313.27L175.675,1318.35ZM176.246,1323.95L184.975,1312.79L184.456,1307.66L175.727,1318.84L176.246,1323.95Z" style="fill:rgb(113,114,116);"/>
        <path d="M176.817,1329.56L185.532,1318.38L185.014,1313.24L176.298,1324.41L176.817,1329.56ZM177.387,1335.12L186.103,1323.98L185.584,1318.87L176.856,1330.01L177.387,1335.12ZM177.945,1340.7L186.674,1329.56L186.155,1324.43L177.426,1335.61L177.945,1340.7Z" style="fill:rgb(111,112,114);"/>
        <path d="M178.516,1346.3L187.244,1335.15L186.713,1330.04L177.997,1341.18L178.516,1346.3ZM179.087,1351.87L187.802,1340.75L187.283,1335.68L178.581,1346.83L179.087,1351.87Z" style="fill:rgb(109,110,112);"/>
        <path d="M179.67,1357.47L188.36,1346.33L187.854,1341.26L179.138,1352.4L179.67,1357.47ZM180.228,1363.07L188.931,1351.92L188.412,1346.86L179.709,1357.97L180.228,1363.07Z" style="fill:rgb(107,108,110);"/>
        <path d="M183.237,1365.55L189.501,1357.55L188.982,1352.42L180.28,1363.58L180.656,1367.32L183.237,1365.55ZM189.54,1358L184.106,1364.96L189.851,1361.06L189.54,1358Z" style="fill:rgb(105,106,108);"/>
        <path d="M243.248,1308.7L235.297,1317.22L236.141,1319.06L237.269,1320.13L245.453,1313.49L243.248,1308.7Z" style="fill:rgb(131,133,135);"/>
        <path d="M240.239,1302.14L232.301,1310.63L235.44,1317.52L243.391,1308.99L240.239,1302.14Z" style="fill:rgb(131,133,135);"/>
        <path d="M237.243,1295.59L229.318,1304.07L232.431,1310.93L240.369,1302.42L237.243,1295.59Z" style="fill:rgb(130,131,133);"/>
        <path d="M234.221,1289.03L226.322,1297.48L229.435,1304.34L237.36,1295.86L234.221,1289.03Z" style="fill:rgb(130,131,133);"/>
        <path d="M231.212,1282.46L223.326,1290.89L226.439,1297.77L234.351,1289.3L231.212,1282.46Z" style="fill:rgb(128,129,131);"/>
        <path d="M228.19,1275.88L220.33,1284.31L223.456,1291.18L231.329,1282.71L228.19,1275.88Z" style="fill:rgb(128,129,131);"/>
        <path d="M225.194,1269.34L217.334,1277.76L220.46,1284.62L228.32,1276.17L225.194,1269.34Z" style="fill:rgb(126,127,130);"/>
        <path d="M222.172,1262.75L214.351,1271.17L217.464,1278L225.311,1269.6L222.172,1262.75Z" style="fill:rgb(126,127,130);"/>
        <path d="M219.163,1256.19L211.342,1264.58L214.481,1271.44L222.315,1263.06L219.163,1256.19Z" style="fill:rgb(124,125,128);"/>
        <path d="M216.167,1249.64L208.359,1257.99L211.485,1264.85L219.306,1256.47L216.167,1249.64Z" style="fill:rgb(124,125,128);"/>
        <path d="M213.145,1243.06L205.363,1251.4L208.489,1258.28L216.284,1249.91L213.145,1243.06Z" style="fill:rgb(124,125,128);"/>
        <path d="M210.136,1236.5L202.367,1244.83L205.48,1251.69L213.275,1243.35L210.136,1236.5Z" style="fill:rgb(122,123,126);"/>
        <path d="M207.127,1229.95L199.384,1238.25L202.51,1245.12L210.266,1236.8L207.127,1229.95Z" style="fill:rgb(122,123,126);"/>
        <path d="M204.105,1223.39L196.375,1231.67L199.514,1238.56L207.257,1230.25L204.105,1223.39Z" style="fill:rgb(120,122,124);"/>
        <path d="M201.096,1216.82L193.392,1225.1L196.505,1231.95L204.248,1223.66L201.096,1216.82Z" style="fill:rgb(120,122,124);"/>
        <path d="M198.087,1210.25L190.396,1218.5L193.509,1225.37L201.239,1217.11L198.087,1210.25Z" style="fill:rgb(120,122,124);"/>
        <path d="M195.078,1203.68L187.4,1211.92L190.526,1218.8L198.217,1210.53L195.078,1203.68Z" style="fill:rgb(118,120,122);"/>
        <path d="M192.069,1197.13L184.404,1205.35L187.53,1212.21L195.208,1203.98L192.069,1197.13Z" style="fill:rgb(118,120,122);"/>
        <path d="M189.06,1190.57L181.421,1198.77L184.534,1205.63L192.199,1197.41L189.06,1190.57Z" style="fill:rgb(118,120,122);"/>
        <path d="M186.051,1184.01L178.425,1192.18L181.551,1199.07L189.19,1190.87L186.051,1184.01Z" style="fill:rgb(117,118,120);"/>
        <path d="M183.029,1177.43L175.416,1185.59L178.555,1192.47L186.181,1184.3L183.029,1177.43Z" style="fill:rgb(117,118,120);"/>
        <path d="M180.033,1170.88L172.433,1179.02L175.559,1185.9L183.172,1177.73L180.033,1170.88Z" style="fill:rgb(115,116,118);"/>
        <path d="M177.024,1164.32L169.437,1172.44L172.563,1179.29L180.15,1171.14L177.024,1164.32Z" style="fill:rgb(115,116,118);"/>
        <path d="M174.002,1157.75L166.441,1165.85L169.567,1172.71L177.154,1164.61L174.002,1157.75Z" style="fill:rgb(115,116,118);"/>
        <path d="M170.993,1151.17L163.445,1159.26L166.571,1166.15L174.132,1158.03L170.993,1151.17Z" style="fill:rgb(113,114,116);"/>
        <path d="M164.093,1148.81L160.462,1152.69L163.588,1159.56L171.123,1151.47L169.087,1147.01L168.866,1146.81L164.093,1148.81Z" style="fill:rgb(113,114,116);"/>
        <path d="M160.592,1152.99L164.742,1148.54L159.554,1150.7L160.592,1152.99Z" style="fill:rgb(111,112,114);"/>
        <path d="M296.619,1219.82L296.631,1219.83L297.008,1311.97L234.454,1212.14L233.871,1185.05L296.619,1219.82Z"/>
        <path d="M144.522,1339.71L138.491,1330.06L139.23,1335.68L144.522,1339.71ZM153.316,1346.42L137.259,1320.74L138.413,1329.48L145.067,1340.11L153.316,1346.42Z" style="fill:rgb(78,78,80);"/>
        <path d="M162.083,1353.11L136.014,1311.41L137.181,1320.18L153.821,1346.83L162.083,1353.11ZM170.89,1359.85L134.782,1302.05L135.949,1310.85L162.589,1353.51L170.89,1359.85Z" style="fill:rgb(76,76,78);"/>
        <path d="M179.657,1366.53L133.537,1292.75L134.704,1301.52L171.395,1360.23L179.657,1366.53ZM179.955,1359.67L132.305,1283.4L133.472,1292.19L180.163,1366.95L180.656,1367.32L179.955,1359.67ZM179.177,1351.06L131.059,1274.07L132.227,1282.89L179.93,1359.22L179.177,1351.06Z" style="fill:rgb(74,73,75);"/>
        <path d="M178.412,1342.5L129.827,1264.76L130.995,1273.54L179.138,1350.61L178.412,1342.5ZM177.621,1333.89L128.595,1255.41L129.75,1264.23L178.36,1342L177.621,1333.89Z" style="fill:rgb(71,71,73);"/>
        <path d="M176.843,1325.28L127.35,1246.04L128.517,1254.85L177.582,1333.38L176.843,1325.28ZM176.065,1316.69L126.105,1236.75L127.272,1245.53L176.791,1324.77L176.065,1316.69ZM175.273,1308.07L124.873,1227.41L126.04,1236.2L176.013,1316.2L175.273,1308.07Z" style="fill:rgb(69,69,70);"/>
        <path d="M249.577,1419.61L232.652,1392.53L243.196,1414.87L249.577,1419.61ZM174.495,1299.48L123.641,1218.08L124.808,1226.88L175.247,1307.6L174.495,1299.48ZM258.15,1426.01L218.424,1362.43L231.835,1390.83L250.057,1419.98L258.15,1426.01ZM173.717,1290.89L122.396,1208.74L123.563,1217.54L174.456,1298.97L173.717,1290.89Z" style="fill:rgb(67,66,68);"/>
        <path d="M266.788,1432.45L204.131,1332.16L217.542,1360.55L258.695,1426.41L266.788,1432.45ZM172.926,1282.26L121.151,1199.38L122.318,1208.2L173.665,1290.36L172.926,1282.26ZM275.374,1438.84L189.929,1302.12L203.379,1330.59L267.242,1432.78L275.374,1438.84ZM172.148,1273.67L119.918,1190.08L121.086,1198.9L172.887,1281.8L172.148,1273.67ZM283.973,1445.25L175.675,1271.96L189.112,1300.4L275.854,1439.19L283.973,1445.25ZM171.37,1265.06L118.686,1180.74L119.854,1189.55L172.109,1273.2L171.37,1265.06Z" style="fill:rgb(63,63,64);"/>
        <path d="M292.546,1451.63L117.441,1171.39L118.621,1180.24L171.331,1264.6L171.123,1262.3L174.91,1270.3L284.44,1445.6L292.546,1451.63ZM297.604,1452.35L116.196,1162.07L117.376,1170.86L293.065,1452.03L297.604,1455.4L297.604,1452.35Z" style="fill:rgb(59,59,60);"/>
        <path d="M297.565,1444.94L114.964,1152.73L116.144,1161.56L297.591,1451.9L297.565,1444.94ZM297.526,1437.6L113.732,1143.44L114.899,1152.23L297.565,1444.56L297.526,1437.6ZM297.5,1430.18L112.474,1134.02L113.667,1142.91L297.526,1437.17L297.5,1430.18Z" style="fill:rgb(54,54,55);"/>
        <path d="M297.475,1422.77L111.255,1124.74L112.409,1133.52L297.5,1429.68L297.475,1422.77ZM297.449,1415.38L236.724,1318.21L236.763,1320.23L233.456,1312.95L111.747,1118.19L110.334,1117.5L110.295,1117.51L111.177,1124.19L297.475,1422.32L297.449,1415.38Z" style="fill:rgb(50,49,50);"/>
        <path d="M297.41,1407.99L236.569,1310.61L236.724,1317.78L297.449,1414.98L297.41,1407.99ZM221.134,1285.9L118.362,1121.43L112.137,1118.38L232.755,1311.44L221.134,1285.9ZM297.384,1400.55L236.4,1302.98L236.556,1310.13L297.41,1407.53L297.384,1400.55ZM208.787,1258.78L124.99,1124.67L118.764,1121.62L220.395,1284.29L208.787,1258.78ZM297.345,1393.16L236.231,1295.36L236.387,1302.53L297.384,1400.15L297.345,1393.16ZM196.453,1231.7L131.604,1127.92L125.379,1124.87L208.074,1257.21L196.453,1231.7Z" style="fill:rgb(45,44,45);"/>
        <path d="M297.319,1385.74L236.076,1287.73L236.231,1294.9L297.358,1392.73L297.319,1385.74ZM184.08,1204.53L138.232,1131.16L132.006,1128.11L195.701,1230.05L184.08,1204.53ZM297.293,1378.36L235.907,1280.13L236.063,1287.3L297.319,1385.31L297.293,1378.36ZM171.785,1177.51L144.846,1134.4L138.621,1131.35L183.392,1203L171.785,1177.51ZM297.254,1370.97L235.738,1272.53L235.894,1279.73L297.28,1377.96L297.254,1370.97ZM159.58,1150.61L151.474,1137.63L145.209,1134.56L171.123,1176.05L159.619,1150.77L159.58,1150.61Z" style="fill:rgb(39,39,40);"/>
        <path d="M297.228,1363.55L235.596,1264.91L235.738,1272.06L297.267,1370.53L297.228,1363.55ZM151.863,1137.83L159.437,1149.95L157.57,1140.63L151.863,1137.83ZM297.202,1356.14L235.414,1257.28L235.57,1264.47L297.228,1363.17L297.202,1356.14Z" style="fill:rgb(33,33,34);"/>
        <path d="M297.163,1348.75L235.246,1249.69L235.401,1256.82L297.202,1355.69L297.163,1348.75ZM297.137,1341.36L235.09,1242.06L235.246,1249.25L297.163,1348.35L297.137,1341.36ZM297.098,1333.97L234.934,1234.46L235.077,1241.65L297.137,1340.96L297.098,1333.97Z" style="fill:rgb(27,27,27);"/>
        <path d="M297.072,1326.54L234.766,1226.81L234.921,1234L297.098,1333.5L297.072,1326.54ZM297.047,1319.14L234.597,1219.21L234.753,1226.38L297.072,1326.11L297.047,1319.14Z" style="fill:rgb(19,19,19);"/>
        <path d="M297.021,1311.75L234.429,1211.6L234.584,1218.8L297.047,1318.74L297.021,1311.75ZM234.429,1211.16L297.008,1311.31L296.982,1304.68L234.286,1204.61L234.429,1211.16Z"/>
        <path d="M190.422,1146.55L190.422,1146.46L223.741,1163.34L202.847,1162.04L191.537,1155.97L190.422,1146.55Z" style="fill:rgb(103,104,106);"/>
        <path d="M228.385,1175.59L228.06,1175.57L228.385,1175.75L228.385,1175.59Z" style="fill:rgb(124,125,128);"/>
        <path d="M228.462,1171.62L219.565,1171.01L227.516,1175.28L228.398,1175.33L228.462,1171.62Z" style="fill:rgb(120,122,124);"/>
        <path d="M228.527,1167.69L211.096,1166.48L219.033,1170.73L228.462,1171.39L228.527,1167.69Z" style="fill:rgb(115,116,118);"/>
        <path d="M223.858,1163.39L202.575,1161.9L210.538,1166.18L228.54,1167.43L228.566,1165.77L223.858,1163.39Z" style="fill:rgb(109,110,112);"/>
        <path d="M202.082,1161.64L223.3,1163.12L215.052,1158.94L194.702,1157.67L202.082,1161.64Z" style="fill:rgb(103,104,106);"/>
        <path d="M235.349,1172.43L228.449,1171.95L228.385,1175.75L235.349,1172.43Z" style="fill:rgb(137,138,141);"/>
        <path d="M242.379,1169.1L228.527,1168.12L228.449,1172.15L234.986,1172.61L242.379,1169.1Z" style="fill:rgb(135,137,139);"/>
        <path d="M249.357,1165.77L231.342,1164.52L228.566,1165.77L228.527,1168.32L242.029,1169.26L249.357,1165.77Z" style="fill:rgb(133,135,137);"/>
        <path d="M256.321,1162.45L238.618,1161.22L230.992,1164.67L249.007,1165.94L256.321,1162.45Z" style="fill:rgb(131,133,135);"/>
        <path d="M263.338,1159.12L245.946,1157.9L238.281,1161.37L255.984,1162.61L263.338,1159.12Z" style="fill:rgb(130,131,133);"/>
        <path d="M270.342,1155.79L253.274,1154.58L245.595,1158.07L262.988,1159.28L270.342,1155.79Z" style="fill:rgb(128,129,131);"/>
        <path d="M277.358,1152.44L260.601,1151.27L252.923,1154.75L270.005,1155.94L277.358,1152.44Z" style="fill:rgb(126,127,130);"/>
        <path d="M284.349,1149.12L267.903,1147.97L260.238,1151.43L277.008,1152.61L284.349,1149.12Z" style="fill:rgb(124,125,128);"/>
        <path d="M291.327,1145.8L275.192,1144.66L267.54,1148.12L284.012,1149.28L291.327,1145.8Z" style="fill:rgb(124,125,128);"/>
        <path d="M298.305,1142.47L282.481,1141.37L274.803,1144.84L290.964,1145.97L298.305,1142.47Z" style="fill:rgb(120,122,124);"/>
        <path d="M305.308,1139.15L289.796,1138.06L282.144,1141.52L297.98,1142.64L305.308,1139.15Z" style="fill:rgb(120,122,124);"/>
        <path d="M312.351,1135.79L297.15,1134.73L289.472,1138.2L304.997,1139.29L312.351,1135.79Z" style="fill:rgb(118,120,122);"/>
        <path d="M319.29,1132.48L304.4,1131.44L296.787,1134.89L312.001,1135.96L319.29,1132.48Z" style="fill:rgb(117,118,120);"/>
        <path d="M326.306,1129.16L311.728,1128.14L304.089,1131.6L318.991,1132.64L326.306,1129.16Z" style="fill:rgb(115,116,118);"/>
        <path d="M333.31,1125.82L319.043,1124.82L311.378,1128.29L325.969,1129.32L333.31,1125.82Z" style="fill:rgb(113,114,116);"/>
        <path d="M340.314,1122.48L326.371,1121.51L318.693,1124.98L332.96,1125.97L340.314,1122.48Z" style="fill:rgb(111,112,114);"/>
        <path d="M340.638,1118.67L333.699,1118.19L326.021,1121.66L339.976,1122.64L340.716,1122.3L340.729,1122.18L340.638,1118.67Z" style="fill:rgb(109,110,112);"/>
        <path d="M333.271,1118.38L340.651,1118.9L340.573,1115.08L333.271,1118.38Z" style="fill:rgb(107,108,110);"/>
        <path d="M304.05,1215.67L289.589,1215.93L296.191,1219.6L297.072,1219.57L304.05,1215.67Z" style="fill:rgb(82,83,85);"/>
        <path d="M311.404,1211.57L282.624,1212.08L289.2,1215.72L304.452,1215.45L311.404,1211.57ZM318.706,1207.49L275.711,1208.24L282.222,1211.84L311.819,1211.32L318.706,1207.49ZM326.099,1203.36L268.695,1204.35L275.231,1207.98L319.199,1207.2L326.099,1203.36Z" style="fill:rgb(80,80,82);"/>
        <path d="M333.453,1199.22L261.717,1200.48L268.306,1204.13L326.501,1203.11L333.453,1199.22ZM340.794,1195.12L254.752,1196.62L261.328,1200.26L333.868,1199L340.794,1195.12ZM348.121,1191.03L247.813,1192.78L254.35,1196.41L341.222,1194.88L348.121,1191.03Z" style="fill:rgb(78,78,80);"/>
        <path d="M355.488,1186.9L240.836,1188.9L247.385,1192.54L348.562,1190.78L355.488,1186.9ZM362.855,1182.79L233.884,1185.05L233.871,1185.05L240.446,1188.69L355.877,1186.69L362.855,1182.79Z" style="fill:rgb(76,76,78);"/>
        <path d="M370.183,1178.69L242.055,1180.91L234.338,1184.81L363.257,1182.56L370.183,1178.69ZM377.498,1174.59L250.2,1176.81L242.522,1180.69L370.611,1178.45L377.498,1174.59ZM384.878,1170.47L258.423,1172.67L250.744,1176.54L377.991,1174.31L384.878,1170.47Z" style="fill:rgb(74,73,75);"/>
        <path d="M392.245,1166.35L266.619,1168.55L258.889,1172.43L385.306,1170.24L392.245,1166.35ZM399.624,1162.22L274.842,1164.4L267.086,1168.3L392.66,1166.11L399.624,1162.22ZM229.863,1165.19L227.49,1165.23L228.566,1165.77L229.863,1165.19Z" style="fill:rgb(71,71,73);"/>
        <path d="M406.978,1158.1L283.039,1160.26L275.283,1164.17L400.013,1161.99L406.978,1158.1ZM239.033,1161.04L219.863,1161.38L227.075,1165.02L230.382,1164.97L239.033,1161.04ZM414.28,1154.02L291.171,1156.18L283.48,1160.06L407.38,1157.89L414.28,1154.02ZM248.125,1156.92L212.302,1157.55L219.435,1161.16L239.526,1160.81L248.125,1156.92ZM421.647,1149.9L299.381,1152.04L291.651,1155.94L414.695,1153.8L421.647,1149.9ZM257.294,1152.77L204.676,1153.69L211.861,1157.32L248.643,1156.68L257.294,1152.77Z" style="fill:rgb(69,69,70);"/>
        <path d="M429.014,1145.78L307.591,1147.9L299.835,1151.81L422.049,1149.67L429.014,1145.78ZM266.464,1148.62L197.063,1149.84L204.261,1153.48L257.8,1152.55L266.464,1148.62ZM436.381,1141.66L315.788,1143.77L308.019,1147.68L429.39,1145.57L436.381,1141.66ZM275.633,1144.46L191.589,1145.93L190.409,1146.46L196.648,1149.63L266.944,1148.39L275.633,1144.46Z" style="fill:rgb(67,66,68);"/>
        <path d="M443.722,1137.55L323.985,1139.64L316.255,1143.53L436.796,1141.42L443.722,1137.55ZM284.803,1140.32L200.863,1141.78L192.095,1145.7L276.152,1144.23L284.803,1140.32ZM451.024,1133.47L332.117,1135.54L324.452,1139.41L444.15,1137.31L451.024,1133.47ZM293.895,1136.2L210.071,1137.66L201.369,1141.55L285.322,1140.08L293.895,1136.2ZM162.68,1138.49L153.303,1138.65L157.583,1140.64L162.68,1138.49ZM458.416,1129.33L340.34,1131.39L332.584,1135.3L451.452,1133.22L458.416,1129.33ZM303.09,1132.05L219.358,1133.51L210.59,1137.43L294.427,1135.97L303.09,1132.05ZM172.602,1134.32L145.002,1134.8L152.849,1138.43L163.237,1138.25L172.602,1134.32Z" style="fill:rgb(63,63,64);"/>
        <path d="M465.796,1125.2L348.549,1127.25L340.807,1131.16L458.831,1129.1L465.796,1125.2ZM312.247,1127.89L228.631,1129.36L219.876,1133.27L303.596,1131.81L312.247,1127.89ZM182.485,1130.17L136.727,1130.98L144.548,1134.6L173.159,1134.1L182.485,1130.17ZM473.124,1121.11L356.733,1123.13L349.003,1127.03L466.198,1124.98L473.124,1121.11ZM321.417,1123.75L237.917,1125.19L229.163,1129.12L312.766,1127.67L321.417,1123.75ZM192.406,1126L128.375,1127.11L136.221,1130.74L183.029,1129.93L192.406,1126Z" style="fill:rgb(59,59,60);"/>
        <path d="M478.494,1117.03L350.936,1119.27L358.406,1122.29L357.2,1122.88L473.552,1120.86L479.609,1117.48L478.494,1117.03ZM330.521,1119.63L247.126,1121.08L238.449,1124.97L321.948,1123.52L330.521,1119.63ZM202.251,1121.87L120.165,1123.3L127.934,1126.9L192.977,1125.78L202.251,1121.87ZM468.753,1113.22L341.468,1115.44L350.339,1119.02L477.884,1116.8L468.753,1113.22ZM339.704,1115.46L256.425,1116.92L247.735,1120.81L331.118,1119.36L339.704,1115.46ZM212.159,1117.69L111.851,1119.45L119.633,1123.04L202.886,1121.59L212.159,1117.69ZM459,1109.39L265.712,1112.78L256.97,1116.7L340.223,1115.24L340.573,1115.09L340.936,1115.23L468.221,1113.01L459,1109.39ZM222.068,1113.53L115.522,1115.4L110.554,1117.37L110.58,1118.37L110.762,1118.94L111.358,1119.21L212.743,1117.45L222.068,1113.53Z" style="fill:rgb(54,54,55);"/>
        <path d="M449.299,1105.6L274.985,1108.63L266.23,1112.55L458.468,1109.19L449.299,1105.6ZM231.964,1109.38L126.027,1111.22L116.105,1115.17L222.613,1113.3L231.964,1109.38ZM439.597,1101.79L284.193,1104.51L275.491,1108.4L448.754,1105.39L439.597,1101.79ZM241.808,1105.24L136.455,1107.09L126.624,1110.99L232.522,1109.15L241.808,1105.24Z" style="fill:rgb(50,49,50);"/>
        <path d="M429.857,1097.97L293.48,1100.36L284.79,1104.25L438.975,1101.55L429.857,1097.97ZM251.717,1101.08L146.96,1102.92L137.142,1106.83L242.444,1104.99L251.717,1101.08ZM420.156,1094.17L298.473,1096.28L300.496,1097.22L294.025,1100.11L429.325,1097.76L420.156,1094.17ZM261.6,1096.92L157.466,1098.73L147.583,1102.66L252.288,1100.84L261.6,1096.92ZM410.363,1090.32L290.134,1092.42L297.98,1096.05L419.572,1093.93L410.363,1090.32ZM271.535,1092.74L167.984,1094.56L158.063,1098.5L262.171,1096.68L271.535,1092.74Z" style="fill:rgb(45,44,45);"/>
        <path d="M400.701,1086.53L281.885,1088.62L289.667,1092.21L409.819,1090.11L400.701,1086.53ZM281.366,1088.62L178.412,1090.42L168.568,1094.32L272.093,1092.52L281.366,1088.62ZM390.961,1082.7L188.918,1086.23L179.087,1090.15L400.078,1086.28L390.961,1082.7ZM381.207,1078.89L199.423,1082.07L189.527,1086L390.403,1082.5L381.207,1078.89Z" style="fill:rgb(39,39,40);"/>
        <path d="M371.454,1075.08L209.942,1077.89L200.007,1081.83L380.676,1078.68L371.454,1075.08ZM361.701,1071.25L220.46,1073.71L210.512,1077.66L370.922,1074.87L361.701,1071.25Z" style="fill:rgb(33,33,34);"/>
        <path d="M351.986,1067.44L230.94,1069.55L221.031,1073.48L361.169,1071.04L351.986,1067.44ZM342.285,1063.64L241.406,1065.39L231.484,1069.33L351.494,1067.24L342.285,1063.64ZM332.558,1059.82L251.886,1061.22L241.951,1065.17L341.766,1063.43L332.558,1059.82Z" style="fill:rgb(27,27,27);"/>
        <path d="M322.83,1056L262.378,1057.05L252.469,1060.99L332.013,1059.6L322.83,1056ZM313.077,1052.18L272.897,1052.89L262.975,1056.82L322.26,1055.79L313.077,1052.18Z" style="fill:rgb(19,19,19);"/>
        <path d="M303.402,1048.38L283.337,1048.74L273.48,1052.65L312.519,1051.96L303.402,1048.38ZM283.999,1048.46L302.766,1048.14L293.739,1044.61L283.999,1048.46ZM669.642,1333.12L631.563,1333.12L631.563,1259.59C631.563,1244.03 630.707,1233.96 629.085,1229.38C627.61,1225.07 624.808,1221.34 621.083,1218.72C617.374,1216.2 612.938,1214.97 607.737,1214.97C601.032,1214.97 595.066,1216.75 589.774,1220.38C584.624,1223.8 580.789,1228.87 578.905,1234.76C576.921,1240.75 575.935,1251.75 575.935,1267.86L575.935,1333.11L537.83,1333.11L537.83,1188.82L573.16,1188.82L573.16,1209.99C585.792,1193.84 601.706,1185.75 620.927,1185.75C629.384,1185.75 637.127,1187.27 644.117,1190.29C651.134,1193.32 656.413,1197.2 660.044,1201.89C663.624,1206.62 666.127,1211.96 667.541,1217.94C668.942,1223.9 669.642,1232.44 669.642,1243.57L669.642,1333.12ZM791.649,1287.52L829.754,1293.9C824.89,1307.88 817.147,1318.49 806.603,1325.77C796.058,1333.11 782.868,1336.74 767.032,1336.74C741.974,1336.74 723.428,1328.53 711.379,1312.12C701.846,1298.97 697.099,1282.36 697.099,1262.35C697.099,1238.42 703.337,1219.66 715.827,1206.08C728.291,1192.52 744.101,1185.75 763.193,1185.75C784.606,1185.75 801.544,1192.84 813.944,1207.03C826.33,1221.22 832.231,1242.97 831.712,1272.23L736.332,1272.23C736.618,1283.55 739.666,1292.37 745.528,1298.65C751.107,1304.82 759.102,1308.28 767.421,1308.11C773.4,1308.11 778.419,1306.51 782.466,1303.27C786.512,1299.96 789.573,1294.75 791.649,1287.52ZM793.866,1248.87C793.607,1237.8 790.754,1229.35 785.332,1223.62C780.321,1218.01 773.104,1214.84 765.579,1214.97C757.253,1214.97 750.418,1217.99 744.996,1224.07C739.575,1230.16 736.903,1238.44 736.981,1248.87L793.866,1248.87ZM854.228,1259.21C854.228,1246.51 857.34,1234.23 863.579,1222.36C869.487,1210.83 878.742,1201.34 890.128,1195.15C901.554,1188.9 914.368,1185.75 928.48,1185.75C950.295,1185.75 968.141,1192.84 982.071,1207.06C996.052,1221.22 1003.02,1239.2 1003.02,1260.83C1003.02,1282.7 995.974,1300.8 981.889,1315.16C967.817,1329.54 950.087,1336.74 928.739,1336.74C915.613,1336.76 902.665,1333.69 890.945,1327.78C879.278,1322.1 869.697,1312.88 863.579,1301.44C857.353,1289.88 854.228,1275.82 854.228,1259.21ZM893.448,1261.23C893.448,1275.59 896.82,1286.54 903.604,1294.16C910.361,1301.79 918.726,1305.64 928.687,1305.64C938.622,1305.64 946.948,1301.79 953.693,1294.16C960.437,1286.54 963.796,1275.5 963.796,1260.97C963.796,1246.84 960.424,1235.94 953.693,1228.32C946.961,1220.69 938.622,1216.89 928.687,1216.89C918.726,1216.89 910.374,1220.69 903.604,1228.32C896.82,1235.94 893.448,1246.93 893.448,1261.23ZM1164.22,1333.12L1126.1,1333.12L1126.1,1259.59C1126.1,1244.03 1125.3,1233.96 1123.62,1229.38C1122.17,1225.06 1119.36,1221.32 1115.62,1218.72C1111.94,1216.2 1107.46,1214.97 1102.26,1214.97C1095.62,1214.97 1089.64,1216.75 1084.32,1220.38C1079.18,1223.81 1075.34,1228.88 1073.43,1234.76C1071.48,1240.75 1070.49,1251.75 1070.49,1267.86L1070.49,1333.11L1032.39,1333.11L1032.39,1188.82L1067.71,1188.82L1067.71,1209.99C1080.37,1193.84 1096.28,1185.75 1115.5,1185.75C1123.96,1185.75 1131.7,1187.27 1138.69,1190.29C1145.71,1193.32 1151.02,1197.2 1154.58,1201.89C1158.19,1206.62 1160.7,1211.96 1162.1,1217.94C1163.52,1223.9 1164.22,1232.44 1164.22,1243.57L1164.22,1333.12Z"/>
    </g>
</svg>
